<?xml version="1.0" encoding="iso-8859-1"?>
<!-- Generator: Adobe Illustrator 27.0.0, SVG Export Plug-In . SVG Version: 6.00 Build 0)  -->
<svg version="1.1" id="Layer_1" xmlns="http://www.w3.org/2000/svg" xmlns:xlink="http://www.w3.org/1999/xlink" x="0px" y="0px"
	 viewBox="0 0 500 500" style="enable-background:new 0 0 500 500;" xml:space="preserve">
<g id="watermark_1_">
	<g>
		<g id="watermark" style="opacity:0.61;">
			<g>
				<g>
					<g>
						<g>
							<polygon style="fill:#FFFFFF;" points="213.765,461.172 208.204,474.017 205.268,474.017 199.726,461.172 202.938,461.172 
								206.846,470.347 210.81,461.172 							"/>
						</g>
						<g>
							<path style="fill:#FFFFFF;" d="M223.507,469.741h-7.469c0.275,1.23,1.321,1.982,2.826,1.982c1.046,0,1.798-0.312,2.477-0.954
								l1.523,1.651c-0.917,1.046-2.294,1.597-4.074,1.597c-3.413,0-5.634-2.147-5.634-5.083c0-2.954,2.257-5.083,5.267-5.083
								c2.899,0,5.138,1.945,5.138,5.12C223.562,469.191,223.526,469.503,223.507,469.741 M216.002,468.071h4.863
								c-0.202-1.248-1.138-2.055-2.422-2.055C217.139,466.016,216.204,466.805,216.002,468.071"/>
						</g>
						<g>
							<path style="fill:#FFFFFF;" d="M224.735,468.934c0-2.973,2.294-5.083,5.505-5.083c2.074,0,3.707,0.899,4.423,2.514
								l-2.22,1.193c-0.532-0.936-1.321-1.358-2.221-1.358c-1.45,0-2.587,1.009-2.587,2.734c0,1.725,1.138,2.734,2.587,2.734
								c0.899,0,1.688-0.404,2.221-1.358l2.22,1.211c-0.716,1.578-2.349,2.495-4.423,2.495
								C227.029,474.017,224.735,471.907,224.735,468.934"/>
						</g>
						<g>
							<path style="fill:#FFFFFF;" d="M242.828,473.393c-0.587,0.422-1.45,0.624-2.331,0.624c-2.33,0-3.688-1.193-3.688-3.542
								v-4.055h-1.523v-2.202h1.523v-2.404h2.863v2.404h2.459v2.202h-2.459v4.019c0,0.844,0.458,1.303,1.229,1.303
								c0.422,0,0.844-0.128,1.156-0.367L242.828,473.393z"/>
						</g>
					</g>
					<g>
						<path style="fill:#FFFFFF;" d="M262.474,463.997v2.643c-0.238-0.018-0.422-0.037-0.642-0.037
							c-1.578,0-2.624,0.862-2.624,2.753v4.661h-2.863v-9.873h2.734v1.303C259.776,464.493,260.951,463.997,262.474,463.997"/>
					</g>
					<g>
						<path style="fill:#FFFFFF;" d="M263.299,472.53l1.009-2.239c1.083,0.789,2.697,1.339,4.239,1.339
							c1.762,0,2.477-0.587,2.477-1.376c0-2.404-7.469-0.752-7.469-5.524c0-2.184,1.762-4,5.413-4c1.615,0,3.267,0.385,4.459,1.138
							l-0.918,2.257c-1.193-0.679-2.422-1.009-3.56-1.009c-1.761,0-2.44,0.66-2.44,1.468c0,2.367,7.468,0.734,7.468,5.45
							c0,2.147-1.78,3.982-5.45,3.982C266.492,474.017,264.437,473.411,263.299,472.53"/>
					</g>
					<g>
						<path style="fill:#FFFFFF;" d="M285.428,469.741h-7.469c0.275,1.23,1.321,1.982,2.826,1.982c1.046,0,1.798-0.312,2.477-0.954
							l1.523,1.651c-0.918,1.046-2.294,1.597-4.074,1.597c-3.413,0-5.634-2.147-5.634-5.083c0-2.954,2.257-5.083,5.267-5.083
							c2.9,0,5.138,1.945,5.138,5.12C285.484,469.191,285.447,469.503,285.428,469.741 M277.923,468.071h4.863
							c-0.202-1.248-1.138-2.055-2.422-2.055C279.061,466.016,278.125,466.805,277.923,468.071"/>
					</g>
					<g>
						<path style="fill:#FFFFFF;" d="M297.007,469.741h-7.469c0.275,1.23,1.321,1.982,2.826,1.982c1.046,0,1.798-0.312,2.477-0.954
							l1.523,1.651c-0.918,1.046-2.294,1.597-4.074,1.597c-3.413,0-5.634-2.147-5.634-5.083c0-2.954,2.257-5.083,5.267-5.083
							c2.899,0,5.138,1.945,5.138,5.12C297.062,469.191,297.025,469.503,297.007,469.741 M289.501,468.071h4.863
							c-0.202-1.248-1.138-2.055-2.422-2.055C290.639,466.016,289.703,466.805,289.501,468.071"/>
					</g>
					<g>
						<polygon style="fill:#FFFFFF;" points="303.208,470.145 301.831,471.503 301.831,474.017 298.969,474.017 298.969,460.401 
							301.831,460.401 301.831,468.108 306.016,464.144 309.429,464.144 305.318,468.328 309.796,474.017 306.327,474.017 						"/>
					</g>
					<g>
						<path style="fill:#FFFFFF;" d="M256.601,475.359L256.601,475.359l-2.86-2.86c-0.435,0.508-0.953,0.943-1.534,1.284
							c-0.092,0.069-0.186,0.136-0.283,0.199l3.027,3.027c0.456,0.456,1.195,0.456,1.65,0
							C257.057,476.554,257.057,475.815,256.601,475.359"/>
					</g>
					<g>
						<path style="fill:#FFFFFF;" d="M249.984,463.244c0.221-0.173,0.495-0.281,0.797-0.281c0.042,0,0.083,0.002,0.124,0.006
							c-0.214-0.156-0.478-0.249-0.764-0.249c-0.395,0-0.744,0.18-0.981,0.458c-0.051,0-0.1,0.006-0.151,0.008
							c0.039-0.077,0.064-0.162,0.064-0.255c0-0.234-0.143-0.434-0.346-0.519c0.087,0.126,0.138,0.279,0.138,0.445
							c0,0.122-0.031,0.237-0.081,0.341c-2.811,0.201-5.03,2.539-5.03,5.4c0,2.993,2.426,5.42,5.42,5.42
							c2.993,0,5.42-2.426,5.42-5.42C254.595,465.879,252.593,463.635,249.984,463.244 M247.983,464.656
							c0.435,0,0.844,0.112,1.199,0.309c0.374-0.245,0.82-0.387,1.299-0.387c0.711,0,1.348,0.312,1.784,0.806
							c-0.435-0.379-1.004-0.61-1.627-0.61c-0.449,0-0.87,0.12-1.234,0.329c-0.079,0.046-0.156,0.096-0.229,0.15
							c-0.065-0.048-0.133-0.093-0.204-0.134c-0.369-0.219-0.8-0.344-1.26-0.344c-0.3,0-0.588,0.054-0.854,0.152
							C247.196,464.754,247.578,464.656,247.983,464.656 M251.772,469.098c0.115,0.305,0.181,0.634,0.181,0.979
							c0,1.534-1.244,2.777-2.778,2.777c-1.534,0-2.777-1.243-2.777-2.777c0-0.345,0.066-0.674,0.181-0.979
							c-0.62-0.382-1.035-1.064-1.035-1.846c0-1.197,0.971-2.168,2.168-2.168c0.565,0,1.078,0.218,1.463,0.572
							c0.386-0.354,0.899-0.572,1.464-0.572c1.197,0,2.168,0.971,2.168,2.168C252.807,468.034,252.392,468.716,251.772,469.098"/>
					</g>
					<g>
						<path style="fill:#FFFFFF;" d="M251.666,467.061c0,0.497-0.404,0.901-0.901,0.901c-0.497,0-0.901-0.404-0.901-0.901
							s0.404-0.901,0.901-0.901c0.101,0,0.197,0.017,0.287,0.047c-0.03,0.062-0.045,0.132-0.045,0.204
							c0,0.273,0.221,0.494,0.494,0.494c0.05,0,0.099-0.008,0.146-0.022C251.66,466.941,251.666,467,251.666,467.061"/>
					</g>
					<g>
						<path style="fill:#FFFFFF;" d="M248.255,467.061c0,0.376-0.305,0.681-0.681,0.681c-0.376,0-0.681-0.305-0.681-0.681
							s0.305-0.681,0.681-0.681c0.076,0,0.149,0.013,0.217,0.035c-0.023,0.047-0.034,0.1-0.034,0.155
							c0,0.206,0.167,0.374,0.374,0.374c0.038,0,0.075-0.006,0.11-0.017C248.25,466.97,248.255,467.015,248.255,467.061"/>
					</g>
					<g>
						<g>
							<g>
								<rect x="242.908" y="467.83" style="fill:#FFFFFF;" width="0.616" height="0.616"/>
							</g>
							<g>
								<rect x="254.827" y="467.83" style="fill:#FFFFFF;" width="0.616" height="0.616"/>
							</g>
							<g>
								<path style="fill:#FFFFFF;" d="M255.205,468.082h-0.14c0-3.248-2.642-5.89-5.89-5.89c-3.248,0-5.89,2.642-5.89,5.89h-0.14
									c0-1.611,0.627-3.125,1.766-4.264c1.139-1.139,2.653-1.766,4.264-1.766c1.611,0,3.125,0.627,4.264,1.766
									C254.578,464.957,255.205,466.471,255.205,468.082"/>
							</g>
						</g>
						<g>
							<rect x="248.868" y="461.814" style="fill:#FFFFFF;" width="0.616" height="0.616"/>
						</g>
						<g>
							<rect x="244.95" y="462.052" style="fill:#FFFFFF;" width="8.45" height="0.14"/>
						</g>
						<g>
							<path style="fill:#FFFFFF;" d="M245.174,462.15c0,0.108-0.088,0.196-0.196,0.196c-0.108,0-0.196-0.088-0.196-0.196
								c0-0.108,0.088-0.196,0.196-0.196C245.086,461.954,245.174,462.042,245.174,462.15"/>
						</g>
						<g>
							<path style="fill:#FFFFFF;" d="M253.596,462.15c0,0.108-0.088,0.196-0.196,0.196c-0.108,0-0.196-0.088-0.196-0.196
								c0-0.108,0.088-0.196,0.196-0.196C253.509,461.954,253.596,462.042,253.596,462.15"/>
						</g>
					</g>
				</g>
				<g>
					<path style="fill:#FFFFFF;" d="M314.356,473.409c0,1.559-2.364,1.559-2.364,0C311.993,471.851,314.356,471.851,314.356,473.409
						z"/>
				</g>
				<g>
					<g>
						<g>
							<path style="fill:#FFFFFF;" d="M161.739,466.549l1.772,6.088l1.855-6.088h2.215l-2.823,8.14h-2.33l-0.837-2.396l-0.722-2.708
								l-0.722,2.708l-0.837,2.396h-2.33l-2.839-8.14h2.231l1.855,6.088l1.756-6.088H161.739z"/>
						</g>
						<g>
							<path style="fill:#FFFFFF;" d="M176.713,466.549l1.772,6.088l1.855-6.088h2.215l-2.823,8.14h-2.33l-0.837-2.396l-0.722-2.708
								l-0.722,2.708l-0.837,2.396h-2.33l-2.839-8.14h2.231l1.855,6.088l1.756-6.088H176.713z"/>
						</g>
						<g>
							<path style="fill:#FFFFFF;" d="M191.687,466.549l1.772,6.088l1.855-6.088h2.215l-2.823,8.14h-2.33l-0.837-2.396l-0.722-2.708
								l-0.722,2.708l-0.837,2.396h-2.33l-2.839-8.14h2.231l1.855,6.088l1.756-6.088H191.687z"/>
						</g>
					</g>
					<g>
						<path style="fill:#FFFFFF;" d="M200.908,473.52c0,1.559-2.364,1.559-2.364,0C198.545,471.962,200.908,471.962,200.908,473.52z
							"/>
					</g>
					<g>
						<path style="fill:#FFFFFF;" d="M322.71,473.409c-0.935,0.919-1.919,1.28-3.117,1.28c-2.346,0-4.3-1.411-4.3-4.282
							s1.953-4.284,4.3-4.284c1.149,0,2.035,0.329,2.921,1.199l-1.264,1.329c-0.476-0.428-1.066-0.64-1.623-0.64
							c-1.346,0-2.33,0.985-2.33,2.396c0,1.542,1.05,2.362,2.297,2.362c0.64,0,1.28-0.18,1.772-0.672L322.71,473.409z"/>
					</g>
					<g>
						<path style="fill:#FFFFFF;" d="M331.805,470.472c0,2.33-1.591,4.217-4.217,4.217c-2.626,0-4.201-1.887-4.201-4.217
							c0-2.314,1.609-4.217,4.185-4.217C330.149,466.255,331.805,468.158,331.805,470.472z M325.389,470.472
							c0,1.231,0.739,2.38,2.199,2.38c1.46,0,2.199-1.149,2.199-2.38c0-1.215-0.854-2.396-2.199-2.396
							C326.144,468.077,325.389,469.258,325.389,470.472z"/>
					</g>
					<g>
						<path style="fill:#FFFFFF;" d="M338.572,474.689v-4.332c0-1.068-0.559-2.035-1.658-2.035c-1.082,0-1.722,0.967-1.722,2.035
							v4.332h-2.003v-8.107h1.855l0.148,0.985c0.426-0.82,1.362-1.116,2.133-1.116c0.969,0,1.937,0.394,2.396,1.51
							c0.723-1.149,1.658-1.478,2.708-1.478c2.297,0,3.43,1.412,3.43,3.84v4.365h-2.003v-4.365c0-1.066-0.442-1.97-1.526-1.97
							c-1.082,0-1.756,0.935-1.756,2.003v4.332H338.572z"/>
					</g>
				</g>
			</g>
		</g>
		<g style="opacity:0.61;">
			<g>
				<g>
					<path style="fill:#FFFFFF;" d="M345.988,431.299c-0.006-1.224-0.959-2.121-2.189-2.14c-0.924-0.014-0.832,0.12-0.834-0.867
						c-0.003-1.097-0.007-2.194,0.003-3.292c0.003-0.379-0.112-0.691-0.362-0.976c-2.342-2.668-4.678-5.342-7.019-8.011
						c-0.12-0.137-0.275-0.244-0.414-0.366c-6.214,0-12.427,0-18.641,0c-0.794,0.293-1.14,0.868-1.138,1.709
						c0.01,3.748,0.004,7.496,0.004,11.243c0,0.556-0.003,0.589-0.55,0.551c-1.497-0.102-2.516,0.986-2.497,2.492
						c0.044,3.476,0.013,6.953,0.014,10.429c0.001,1.58,0.867,2.443,2.45,2.449c0.582,0.002,0.582,0.002,0.582,0.6
						c0,2.219-0.001,4.438,0.001,6.657c0.001,1.192,0.58,1.771,1.768,1.771c8.013,0.001,16.027,0.001,24.04,0
						c1.168,0,1.755-0.583,1.757-1.745c0.002-2.256,0-4.512,0.001-6.768c0-0.512,0.002-0.511,0.52-0.515
						c0.271-0.002,0.541,0.008,0.809-0.058c0.996-0.246,1.69-1.044,1.694-2.069C346.003,438.696,346.005,434.997,345.988,431.299z
						 M317.537,417.162c5.337,0,10.674,0,16.01,0c0.548,0,0.554,0.007,0.554,0.561c0.001,2.243-0.001,4.486,0.001,6.73
						c0.001,0.811,0.249,1.059,1.06,1.059c1.91,0.001,3.821,0,5.731,0.001c0.458,0,0.479,0.021,0.481,0.483
						c0.003,0.887,0.002,1.775,0,2.662c-0.001,0.477-0.024,0.498-0.504,0.499c-3.895,0.001-7.79,0-11.684,0
						c-3.882,0-7.765,0-11.647,0c-0.55,0-0.552-0.001-0.552-0.561c-0.001-3.624-0.001-7.247,0-10.871
						C316.987,417.166,316.991,417.162,317.537,417.162z M340.822,451.579c-3.883,0.001-7.766,0-11.65,0c-3.871,0-7.742,0-11.613,0
						c-0.572,0-0.574-0.002-0.574-0.579c-0.001-1.997-0.001-3.994,0.001-5.991c0-0.464,0.023-0.486,0.478-0.487
						c7.803-0.001,15.607-0.001,23.41,0c0.478,0,0.499,0.02,0.499,0.503c0.002,1.997,0.001,3.994,0,5.991
						C341.375,451.574,341.37,451.579,340.822,451.579z"/>
				</g>
				<g>
					<g>
						<rect x="327.418" y="417.053" style="fill:#FFFFFF;" width="1.757" height="1.054"/>
					</g>
					<g>
						<rect x="325.662" y="418.107" style="fill:#FFFFFF;" width="1.757" height="1.054"/>
					</g>
					<g>
						<rect x="327.418" y="419.161" style="fill:#FFFFFF;" width="1.757" height="1.054"/>
					</g>
					<g>
						<rect x="325.662" y="420.215" style="fill:#FFFFFF;" width="1.757" height="1.054"/>
					</g>
					<g>
						<rect x="327.418" y="421.269" style="fill:#FFFFFF;" width="1.757" height="1.054"/>
					</g>
					<g>
						<rect x="325.662" y="422.323" style="fill:#FFFFFF;" width="1.757" height="1.054"/>
					</g>
					<g>
						<rect x="327.418" y="423.378" style="fill:#FFFFFF;" width="1.757" height="1.054"/>
					</g>
					<g>
						<rect x="325.662" y="424.432" style="fill:#FFFFFF;" width="1.757" height="1.054"/>
					</g>
					<g>
						<rect x="327.418" y="425.486" style="fill:#FFFFFF;" width="1.757" height="1.054"/>
					</g>
					<g>
						<rect x="325.662" y="426.54" style="fill:#FFFFFF;" width="1.757" height="1.054"/>
					</g>
					<g>
						<rect x="327.418" y="427.594" style="fill:#FFFFFF;" width="1.757" height="1.054"/>
					</g>
					<g>
						<rect x="325.662" y="428.648" style="fill:#FFFFFF;" width="1.757" height="1.054"/>
					</g>
				</g>
			</g>
			<g>
				<path style="fill:#FFFFFF;" d="M187.637,431.299c-0.006-1.224-0.959-2.121-2.189-2.14c-0.924-0.014-0.832,0.12-0.834-0.867
					c-0.003-1.097-0.007-2.194,0.003-3.292c0.003-0.379-0.112-0.691-0.362-0.976c-2.342-2.668-4.678-5.342-7.019-8.011
					c-0.12-0.137-0.275-0.244-0.414-0.366c-6.214,0-12.427,0-18.641,0c-0.794,0.293-1.14,0.868-1.138,1.709
					c0.01,3.748,0.004,7.496,0.004,11.243c0,0.556-0.003,0.589-0.55,0.551c-1.497-0.102-2.516,0.986-2.497,2.492
					c0.044,3.476,0.013,6.953,0.014,10.429c0.001,1.58,0.867,2.443,2.45,2.449c0.582,0.002,0.582,0.002,0.582,0.6
					c0,2.219-0.001,4.438,0.001,6.657c0.001,1.192,0.58,1.771,1.768,1.771c8.013,0.001,16.027,0.001,24.04,0
					c1.168,0,1.755-0.583,1.757-1.745c0.002-2.256,0-4.512,0.001-6.768c0-0.512,0.002-0.511,0.52-0.515
					c0.271-0.002,0.541,0.008,0.809-0.058c0.996-0.246,1.69-1.044,1.694-2.069C187.652,438.696,187.655,434.997,187.637,431.299z
					 M159.187,417.162c5.337,0,10.674,0,16.01,0c0.548,0,0.554,0.007,0.554,0.561c0.001,2.243-0.001,4.486,0.001,6.73
					c0.001,0.811,0.249,1.059,1.06,1.059c1.91,0.001,3.821,0,5.731,0.001c0.458,0,0.479,0.021,0.481,0.483
					c0.003,0.887,0.002,1.775,0,2.662c-0.001,0.477-0.024,0.498-0.504,0.499c-3.895,0.001-7.79,0-11.684,0
					c-3.882,0-7.765,0-11.647,0c-0.55,0-0.552-0.001-0.552-0.561c-0.001-3.624-0.001-7.247,0-10.871
					C158.636,417.166,158.64,417.162,159.187,417.162z M182.472,451.579c-3.883,0.001-7.766,0-11.65,0c-3.871,0-7.742,0-11.613,0
					c-0.572,0-0.574-0.002-0.574-0.579c-0.001-1.997-0.001-3.994,0.001-5.991c0-0.464,0.023-0.486,0.478-0.487
					c7.803-0.001,15.607-0.001,23.41,0c0.478,0,0.499,0.02,0.499,0.503c0.002,1.997,0.001,3.994,0,5.991
					C183.024,451.574,183.019,451.579,182.472,451.579z"/>
			</g>
			<g>
				<path style="fill:#FFFFFF;" d="M159.779,440.669v-7.897h2.779c0.375,0,0.726,0.061,1.053,0.182
					c0.327,0.121,0.612,0.292,0.855,0.513c0.242,0.221,0.434,0.483,0.573,0.789c0.14,0.305,0.21,0.642,0.21,1.009
					c0,0.375-0.07,0.715-0.21,1.02c-0.14,0.305-0.331,0.568-0.573,0.789c-0.243,0.221-0.528,0.392-0.855,0.513
					c-0.327,0.121-0.678,0.182-1.053,0.182h-1.29v2.901H159.779z M162.58,436.356c0.39,0,0.684-0.111,0.882-0.331
					c0.199-0.22,0.298-0.474,0.298-0.761c0-0.14-0.024-0.276-0.072-0.408c-0.048-0.132-0.121-0.248-0.221-0.347
					c-0.099-0.099-0.223-0.178-0.37-0.237c-0.147-0.059-0.32-0.089-0.518-0.089h-1.312v2.173H162.58z"/>
				<path style="fill:#FFFFFF;" d="M166.308,432.771h1.731l3.177,5.294h0.088l-0.088-1.522v-3.772h1.478v7.897h-1.566l-3.353-5.592
					h-0.088l0.088,1.522v4.07h-1.467V432.771z"/>
				<path style="fill:#FFFFFF;" d="M177.922,436.334h3.872c0.022,0.089,0.04,0.195,0.055,0.32c0.014,0.125,0.022,0.25,0.022,0.375
					c0,0.507-0.077,0.985-0.231,1.434c-0.154,0.449-0.397,0.849-0.728,1.202c-0.353,0.375-0.776,0.666-1.268,0.871
					c-0.493,0.206-1.055,0.309-1.688,0.309c-0.574,0-1.114-0.103-1.622-0.309c-0.507-0.206-0.948-0.492-1.323-0.86
					c-0.375-0.367-0.673-0.803-0.894-1.307c-0.221-0.504-0.331-1.053-0.331-1.649c0-0.595,0.11-1.145,0.331-1.649
					c0.221-0.504,0.518-0.939,0.894-1.307c0.375-0.367,0.816-0.654,1.323-0.86c0.507-0.206,1.048-0.309,1.622-0.309
					c0.64,0,1.211,0.11,1.715,0.331c0.504,0.221,0.935,0.526,1.296,0.915l-1.025,1.004c-0.258-0.272-0.544-0.48-0.861-0.623
					c-0.316-0.143-0.695-0.215-1.136-0.215c-0.361,0-0.703,0.065-1.026,0.193c-0.324,0.129-0.607,0.311-0.85,0.546
					c-0.242,0.235-0.436,0.52-0.579,0.855c-0.143,0.335-0.215,0.708-0.215,1.119c0,0.412,0.072,0.785,0.215,1.12
					c0.143,0.335,0.338,0.62,0.584,0.855c0.246,0.235,0.531,0.418,0.855,0.546c0.323,0.129,0.669,0.193,1.037,0.193
					c0.419,0,0.773-0.061,1.064-0.182c0.29-0.121,0.538-0.278,0.744-0.469c0.148-0.132,0.275-0.3,0.381-0.502
					c0.106-0.202,0.189-0.428,0.248-0.678h-2.482V436.334z"/>
			</g>
			<g>
				<path style="fill:#FFFFFF;" d="M224.019,431.299c-0.006-1.224-0.959-2.121-2.189-2.14c-0.924-0.014-0.832,0.12-0.834-0.867
					c-0.003-1.097-0.007-2.194,0.003-3.292c0.003-0.379-0.112-0.691-0.362-0.976c-2.342-2.668-4.678-5.342-7.019-8.011
					c-0.12-0.137-0.275-0.244-0.414-0.366c-6.214,0-12.427,0-18.641,0c-0.794,0.293-1.14,0.868-1.138,1.709
					c0.01,3.748,0.004,7.496,0.004,11.243c0,0.556-0.003,0.589-0.55,0.551c-1.497-0.102-2.516,0.986-2.497,2.492
					c0.044,3.476,0.013,6.953,0.014,10.429c0.001,1.58,0.867,2.443,2.45,2.449c0.582,0.002,0.582,0.002,0.582,0.6
					c0,2.219-0.001,4.438,0.001,6.657c0.001,1.192,0.58,1.771,1.768,1.771c8.013,0.001,16.027,0.001,24.04,0
					c1.168,0,1.755-0.583,1.757-1.745c0.002-2.256,0-4.512,0.001-6.768c0-0.512,0.002-0.511,0.52-0.515
					c0.271-0.002,0.541,0.008,0.809-0.058c0.997-0.246,1.69-1.044,1.694-2.069C224.034,438.696,224.036,434.997,224.019,431.299z
					 M195.568,417.162c5.337,0,10.674,0,16.01,0c0.548,0,0.554,0.007,0.554,0.561c0.001,2.243-0.001,4.486,0.001,6.73
					c0.001,0.811,0.249,1.059,1.06,1.059c1.91,0.001,3.821,0,5.731,0.001c0.458,0,0.479,0.021,0.481,0.483
					c0.003,0.887,0.002,1.775,0,2.662c-0.001,0.477-0.024,0.498-0.504,0.499c-3.895,0.001-7.79,0-11.684,0
					c-3.882,0-7.765,0-11.647,0c-0.55,0-0.552-0.001-0.552-0.561c-0.001-3.624-0.001-7.247,0-10.871
					C195.018,417.166,195.022,417.162,195.568,417.162z M218.854,451.579c-3.883,0.001-7.766,0-11.65,0c-3.871,0-7.742,0-11.613,0
					c-0.572,0-0.574-0.002-0.574-0.579c-0.001-1.997-0.001-3.994,0.001-5.991c0-0.464,0.023-0.486,0.478-0.487
					c7.803-0.001,15.607-0.001,23.41,0c0.478,0,0.499,0.02,0.499,0.503c0.002,1.997,0.001,3.994,0,5.991
					C219.406,451.574,219.401,451.579,218.854,451.579z"/>
			</g>
			<g>
				<path style="fill:#FFFFFF;" d="M205.111,432.771h1.699l2.967,7.897h-1.644l-0.651-1.886h-3.044l-0.651,1.886h-1.643
					L205.111,432.771z M206.997,437.415l-0.706-1.974l-0.287-0.96h-0.088l-0.287,0.96l-0.706,1.974H206.997z"/>
				<path style="fill:#FFFFFF;" d="M211.331,434.536c-0.125,0-0.245-0.024-0.359-0.072c-0.114-0.048-0.213-0.114-0.298-0.199
					c-0.084-0.084-0.151-0.182-0.198-0.292c-0.048-0.11-0.072-0.232-0.072-0.364s0.024-0.254,0.072-0.364
					c0.048-0.11,0.114-0.208,0.198-0.292c0.084-0.084,0.184-0.151,0.298-0.198c0.114-0.048,0.233-0.072,0.359-0.072
					c0.257,0,0.478,0.09,0.662,0.27c0.184,0.181,0.276,0.399,0.276,0.656s-0.092,0.476-0.276,0.656
					C211.809,434.446,211.589,434.536,211.331,434.536z M210.615,440.669v-5.404h1.445v5.404H210.615z"/>
			</g>
			<g>
				<path style="fill:#FFFFFF;" d="M261.044,431.299c-0.006-1.224-0.959-2.121-2.189-2.14c-0.924-0.014-0.832,0.12-0.834-0.867
					c-0.003-1.097-0.007-2.194,0.003-3.292c0.003-0.379-0.112-0.691-0.362-0.976c-2.342-2.668-4.678-5.342-7.019-8.011
					c-0.12-0.137-0.275-0.244-0.414-0.366c-6.214,0-12.427,0-18.641,0c-0.794,0.293-1.14,0.868-1.138,1.709
					c0.01,3.748,0.004,7.496,0.004,11.243c0,0.556-0.003,0.589-0.55,0.551c-1.497-0.102-2.516,0.986-2.497,2.492
					c0.044,3.476,0.013,6.953,0.014,10.429c0.001,1.58,0.867,2.443,2.45,2.449c0.582,0.002,0.582,0.002,0.582,0.6
					c0,2.219-0.001,4.438,0.001,6.657c0.001,1.192,0.58,1.771,1.768,1.771c8.013,0.001,16.027,0.001,24.04,0
					c1.168,0,1.755-0.583,1.757-1.745c0.002-2.256,0-4.512,0.001-6.768c0-0.512,0.002-0.511,0.52-0.515
					c0.271-0.002,0.541,0.008,0.809-0.058c0.996-0.246,1.69-1.044,1.694-2.069C261.059,438.696,261.061,434.997,261.044,431.299z
					 M232.593,417.162c5.337,0,10.674,0,16.01,0c0.548,0,0.554,0.007,0.554,0.561c0.001,2.243-0.001,4.486,0.001,6.73
					c0.001,0.811,0.249,1.059,1.06,1.059c1.91,0.001,3.821,0,5.731,0.001c0.458,0,0.479,0.021,0.481,0.483
					c0.003,0.887,0.002,1.775,0,2.662c-0.001,0.477-0.024,0.498-0.504,0.499c-3.895,0.001-7.79,0-11.684,0
					c-3.882,0-7.765,0-11.647,0c-0.55,0-0.552-0.001-0.552-0.561c-0.001-3.624-0.001-7.247,0-10.871
					C232.042,417.166,232.047,417.162,232.593,417.162z M255.878,451.579c-3.883,0.001-7.766,0-11.65,0c-3.871,0-7.742,0-11.613,0
					c-0.572,0-0.574-0.002-0.574-0.579c-0.001-1.997-0.001-3.994,0.001-5.991c0-0.464,0.023-0.486,0.478-0.487
					c7.803-0.001,15.607-0.001,23.41,0c0.478,0,0.499,0.02,0.499,0.503c0.002,1.997,0.001,3.994,0,5.991
					C256.431,451.574,256.426,451.579,255.878,451.579z"/>
			</g>
			<g>
				<path style="fill:#FFFFFF;" d="M236.361,440.845c-0.338,0-0.662-0.048-0.971-0.143c-0.309-0.095-0.592-0.239-0.849-0.43
					c-0.257-0.191-0.481-0.425-0.673-0.7c-0.191-0.276-0.342-0.597-0.452-0.965l1.401-0.551c0.103,0.397,0.283,0.726,0.54,0.987
					c0.257,0.261,0.596,0.392,1.015,0.392c0.154,0,0.303-0.02,0.447-0.061c0.143-0.04,0.272-0.099,0.386-0.176
					s0.204-0.175,0.27-0.292c0.066-0.118,0.099-0.254,0.099-0.408c0-0.147-0.026-0.279-0.077-0.397
					c-0.051-0.117-0.138-0.227-0.259-0.331c-0.121-0.103-0.28-0.202-0.475-0.298c-0.195-0.095-0.435-0.195-0.722-0.298l-0.485-0.176
					c-0.213-0.073-0.429-0.173-0.645-0.298c-0.217-0.125-0.413-0.276-0.59-0.452c-0.177-0.176-0.322-0.384-0.436-0.623
					c-0.114-0.239-0.171-0.509-0.171-0.81c0-0.309,0.06-0.597,0.182-0.866c0.121-0.268,0.294-0.503,0.518-0.706
					c0.224-0.202,0.492-0.36,0.805-0.474s0.66-0.171,1.042-0.171c0.397,0,0.74,0.053,1.031,0.16
					c0.291,0.107,0.537,0.243,0.739,0.408c0.202,0.165,0.366,0.348,0.491,0.546c0.125,0.199,0.217,0.386,0.276,0.563l-1.312,0.551
					c-0.074-0.221-0.208-0.419-0.402-0.596c-0.195-0.176-0.462-0.265-0.8-0.265c-0.324,0-0.592,0.075-0.805,0.226
					c-0.213,0.151-0.32,0.348-0.32,0.59c0,0.235,0.103,0.436,0.309,0.601c0.206,0.165,0.533,0.325,0.982,0.48l0.497,0.165
					c0.316,0.111,0.605,0.237,0.866,0.381c0.261,0.143,0.485,0.314,0.673,0.513c0.187,0.199,0.331,0.425,0.43,0.678
					c0.1,0.254,0.149,0.546,0.149,0.877c0,0.412-0.083,0.767-0.248,1.064c-0.165,0.298-0.377,0.542-0.634,0.734
					c-0.258,0.191-0.548,0.335-0.872,0.43C236.986,440.797,236.67,440.845,236.361,440.845z"/>
				<path style="fill:#FFFFFF;" d="M239.516,432.771h1.61l1.633,4.754l0.287,1.015h0.088l0.309-1.015l1.699-4.754h1.61l-2.879,7.897
					h-1.566L239.516,432.771z"/>
				<path style="fill:#FFFFFF;" d="M251.097,436.334h3.871c0.022,0.089,0.04,0.195,0.055,0.32c0.015,0.125,0.023,0.25,0.023,0.375
					c0,0.507-0.078,0.985-0.232,1.434c-0.154,0.449-0.397,0.849-0.728,1.202c-0.353,0.375-0.775,0.666-1.268,0.871
					c-0.493,0.206-1.055,0.309-1.688,0.309c-0.574,0-1.114-0.103-1.621-0.309c-0.507-0.206-0.949-0.492-1.324-0.86
					c-0.375-0.367-0.673-0.803-0.894-1.307c-0.22-0.504-0.331-1.053-0.331-1.649c0-0.595,0.11-1.145,0.331-1.649
					c0.221-0.504,0.518-0.939,0.894-1.307c0.375-0.367,0.816-0.654,1.324-0.86c0.507-0.206,1.047-0.309,1.621-0.309
					c0.64,0,1.211,0.11,1.715,0.331c0.504,0.221,0.936,0.526,1.296,0.915l-1.026,1.004c-0.257-0.272-0.544-0.48-0.861-0.623
					c-0.316-0.143-0.694-0.215-1.136-0.215c-0.36,0-0.702,0.065-1.026,0.193c-0.323,0.129-0.607,0.311-0.849,0.546
					c-0.243,0.235-0.436,0.52-0.579,0.855c-0.143,0.335-0.215,0.708-0.215,1.119c0,0.412,0.072,0.785,0.215,1.12
					c0.143,0.335,0.338,0.62,0.585,0.855c0.246,0.235,0.531,0.418,0.854,0.546c0.324,0.129,0.669,0.193,1.037,0.193
					c0.419,0,0.774-0.061,1.064-0.182c0.29-0.121,0.539-0.278,0.745-0.469c0.147-0.132,0.274-0.3,0.38-0.502
					c0.107-0.202,0.189-0.428,0.248-0.678h-2.482V436.334z"/>
			</g>
			<g>
				<path style="fill:#FFFFFF;" d="M297.3,431.299c-0.006-1.224-0.959-2.121-2.189-2.14c-0.924-0.014-0.832,0.12-0.834-0.867
					c-0.003-1.097-0.007-2.194,0.003-3.292c0.003-0.379-0.112-0.691-0.362-0.976c-2.342-2.668-4.678-5.342-7.019-8.011
					c-0.12-0.137-0.275-0.244-0.414-0.366c-6.214,0-12.427,0-18.641,0c-0.794,0.293-1.14,0.868-1.138,1.709
					c0.01,3.748,0.004,7.496,0.004,11.243c0,0.556-0.003,0.589-0.55,0.551c-1.497-0.102-2.516,0.986-2.497,2.492
					c0.044,3.476,0.013,6.953,0.014,10.429c0.001,1.58,0.867,2.443,2.45,2.449c0.582,0.002,0.582,0.002,0.582,0.6
					c0,2.219-0.001,4.438,0.001,6.657c0.001,1.192,0.58,1.771,1.768,1.771c8.013,0.001,16.027,0.001,24.04,0
					c1.168,0,1.755-0.583,1.757-1.745c0.002-2.256,0-4.512,0.001-6.768c0-0.512,0.002-0.511,0.52-0.515
					c0.271-0.002,0.541,0.008,0.809-0.058c0.996-0.246,1.69-1.044,1.694-2.069C297.315,438.696,297.318,434.997,297.3,431.299z
					 M268.85,417.162c5.337,0,10.674,0,16.01,0c0.548,0,0.554,0.007,0.554,0.561c0.001,2.243-0.001,4.486,0.001,6.73
					c0.001,0.811,0.249,1.059,1.06,1.059c1.91,0.001,3.821,0,5.731,0.001c0.458,0,0.479,0.021,0.481,0.483
					c0.003,0.887,0.002,1.775,0,2.662c-0.001,0.477-0.024,0.498-0.504,0.499c-3.895,0.001-7.79,0-11.684,0
					c-3.882,0-7.765,0-11.647,0c-0.55,0-0.552-0.001-0.552-0.561c-0.001-3.624-0.001-7.247,0-10.871
					C268.299,417.166,268.303,417.162,268.85,417.162z M292.135,451.579c-3.883,0.001-7.766,0-11.65,0c-3.871,0-7.742,0-11.613,0
					c-0.572,0-0.574-0.002-0.574-0.579c-0.001-1.997-0.001-3.994,0.001-5.991c0-0.464,0.023-0.486,0.478-0.487
					c7.803-0.001,15.607-0.001,23.41,0c0.478,0,0.499,0.02,0.499,0.503c0.001,1.997,0.001,3.994,0,5.991
					C292.687,451.574,292.682,451.579,292.135,451.579z"/>
			</g>
			<g>
				<path style="fill:#FFFFFF;" d="M272.966,434.183v1.831h3.165v1.412h-3.165v1.831h3.518v1.412h-5.007v-7.897h5.007v1.412H272.966
					z"/>
				<path style="fill:#FFFFFF;" d="M277.852,440.669v-7.897h2.779c0.375,0,0.726,0.061,1.053,0.182
					c0.327,0.121,0.612,0.292,0.855,0.513c0.243,0.221,0.434,0.483,0.574,0.789c0.14,0.305,0.209,0.642,0.209,1.009
					c0,0.375-0.07,0.715-0.209,1.02c-0.14,0.305-0.331,0.568-0.574,0.789c-0.243,0.221-0.528,0.392-0.855,0.513
					c-0.327,0.121-0.678,0.182-1.053,0.182h-1.29v2.901H277.852z M280.653,436.356c0.389,0,0.684-0.111,0.882-0.331
					c0.199-0.22,0.298-0.474,0.298-0.761c0-0.14-0.024-0.276-0.072-0.408c-0.048-0.132-0.121-0.248-0.221-0.347
					c-0.099-0.099-0.222-0.178-0.37-0.237c-0.147-0.059-0.32-0.089-0.518-0.089h-1.312v2.173H280.653z"/>
				<path style="fill:#FFFFFF;" d="M286.797,440.845c-0.338,0-0.662-0.048-0.971-0.143c-0.309-0.095-0.592-0.239-0.849-0.43
					c-0.257-0.191-0.482-0.425-0.673-0.7c-0.191-0.276-0.342-0.597-0.452-0.965l1.401-0.551c0.103,0.397,0.283,0.726,0.541,0.987
					c0.257,0.261,0.595,0.392,1.015,0.392c0.154,0,0.303-0.02,0.447-0.061c0.143-0.04,0.272-0.099,0.386-0.176
					c0.114-0.077,0.204-0.175,0.27-0.292c0.066-0.118,0.1-0.254,0.1-0.408c0-0.147-0.026-0.279-0.077-0.397
					c-0.051-0.117-0.138-0.227-0.259-0.331c-0.121-0.103-0.279-0.202-0.474-0.298c-0.195-0.095-0.436-0.195-0.723-0.298
					l-0.485-0.176c-0.213-0.073-0.428-0.173-0.645-0.298c-0.217-0.125-0.414-0.276-0.59-0.452c-0.176-0.176-0.322-0.384-0.436-0.623
					c-0.114-0.239-0.171-0.509-0.171-0.81c0-0.309,0.061-0.597,0.182-0.866c0.121-0.268,0.294-0.503,0.518-0.706
					c0.224-0.202,0.493-0.36,0.805-0.474c0.312-0.114,0.66-0.171,1.042-0.171c0.397,0,0.741,0.053,1.031,0.16
					c0.29,0.107,0.537,0.243,0.739,0.408c0.202,0.165,0.365,0.348,0.491,0.546c0.125,0.199,0.217,0.386,0.276,0.563l-1.312,0.551
					c-0.074-0.221-0.208-0.419-0.403-0.596c-0.195-0.176-0.462-0.265-0.799-0.265c-0.324,0-0.592,0.075-0.805,0.226
					c-0.213,0.151-0.32,0.348-0.32,0.59c0,0.235,0.103,0.436,0.309,0.601c0.206,0.165,0.533,0.325,0.982,0.48l0.496,0.165
					c0.316,0.111,0.605,0.237,0.866,0.381c0.261,0.143,0.485,0.314,0.673,0.513c0.187,0.199,0.331,0.425,0.43,0.678
					c0.099,0.254,0.149,0.546,0.149,0.877c0,0.412-0.083,0.767-0.248,1.064c-0.165,0.298-0.377,0.542-0.634,0.734
					c-0.258,0.191-0.548,0.335-0.872,0.43C287.422,440.797,287.105,440.845,286.797,440.845z"/>
			</g>
			<g>
				<path style="fill:#FFFFFF;" d="M321.394,439.168l4.004-4.985h-3.827v-1.412h5.559v1.5l-3.96,4.985h4.004v1.412h-5.779V439.168z"
					/>
				<path style="fill:#FFFFFF;" d="M328.409,432.771h1.489v7.897h-1.489V432.771z"/>
				<path style="fill:#FFFFFF;" d="M331.486,440.669v-7.897h2.779c0.375,0,0.726,0.061,1.053,0.182
					c0.327,0.121,0.612,0.292,0.855,0.513s0.434,0.483,0.574,0.789c0.14,0.305,0.209,0.642,0.209,1.009
					c0,0.375-0.07,0.715-0.209,1.02c-0.14,0.305-0.331,0.568-0.574,0.789c-0.243,0.221-0.528,0.392-0.855,0.513
					c-0.327,0.121-0.678,0.182-1.053,0.182h-1.29v2.901H331.486z M334.288,436.356c0.389,0,0.684-0.111,0.882-0.331
					c0.199-0.22,0.298-0.474,0.298-0.761c0-0.14-0.024-0.276-0.072-0.408c-0.048-0.132-0.121-0.248-0.221-0.347
					c-0.099-0.099-0.222-0.178-0.37-0.237c-0.147-0.059-0.32-0.089-0.518-0.089h-1.312v2.173H334.288z"/>
			</g>
		</g>
		<g style="opacity:0.61;">
			<path style="fill:#FFFFFF;" d="M300.133,433.27h9.067v2.242h-9.067V433.27z M300.133,437.136h9.067v2.243h-9.067V437.136z"/>
		</g>
	</g>
	<g style="opacity:0.61;">
		<path style="fill:#FFFFFF;" d="M156.756,478.878h1.607c1.263,0,2.114,0.812,2.114,1.974c0,1.161-0.851,1.973-2.114,1.973h-1.607
			V478.878z M158.34,482.464c1.049,0,1.725-0.665,1.725-1.612c0-0.947-0.677-1.613-1.725-1.613h-1.167v3.225H158.34z"/>
		<path style="fill:#FFFFFF;" d="M165.139,480.851c0-1.15,0.879-2.007,2.075-2.007c1.184,0,2.069,0.851,2.069,2.007
			c0,1.156-0.885,2.007-2.069,2.007C166.019,482.858,165.139,482.002,165.139,480.851z M168.866,480.851
			c0-0.942-0.705-1.635-1.652-1.635c-0.953,0-1.663,0.693-1.663,1.635c0,0.941,0.71,1.635,1.663,1.635
			C168.162,482.486,168.866,481.793,168.866,480.851z"/>
		<path style="fill:#FFFFFF;" d="M179.596,478.878l-1.331,3.947h-0.44l-1.156-3.366l-1.161,3.366h-0.434l-1.331-3.947h0.429
			l1.139,3.394l1.178-3.394h0.389l1.161,3.411l1.156-3.411H179.596z"/>
		<path style="fill:#FFFFFF;" d="M187.731,478.878v3.947h-0.344l-2.537-3.202v3.202h-0.417v-3.947h0.344l2.543,3.203v-3.203H187.731
			z"/>
		<path style="fill:#FFFFFF;" d="M193.093,478.878h0.417v3.586h2.21v0.361h-2.627V478.878z"/>
		<path style="fill:#FFFFFF;" d="M200.061,480.851c0-1.15,0.879-2.007,2.075-2.007c1.184,0,2.069,0.851,2.069,2.007
			c0,1.156-0.885,2.007-2.069,2.007C200.941,482.858,200.061,482.002,200.061,480.851z M203.788,480.851
			c0-0.942-0.705-1.635-1.652-1.635c-0.953,0-1.663,0.693-1.663,1.635c0,0.941,0.71,1.635,1.663,1.635
			C203.083,482.486,203.788,481.793,203.788,480.851z"/>
		<path style="fill:#FFFFFF;" d="M211.636,481.77h-2.199l-0.474,1.054h-0.434l1.804-3.947h0.412l1.804,3.947h-0.44L211.636,481.77z
			 M211.484,481.432l-0.947-2.12l-0.947,2.12H211.484z"/>
		<path style="fill:#FFFFFF;" d="M217.28,478.878h1.607c1.263,0,2.114,0.812,2.114,1.974c0,1.161-0.851,1.973-2.114,1.973h-1.607
			V478.878z M218.864,482.464c1.049,0,1.725-0.665,1.725-1.612c0-0.947-0.677-1.613-1.725-1.613h-1.167v3.225H218.864z"/>
		<path style="fill:#FFFFFF;" d="M234.041,481.77h-2.199l-0.474,1.054h-0.434l1.804-3.947h0.412l1.804,3.947h-0.44L234.041,481.77z
			 M233.889,481.432l-0.947-2.12l-0.947,2.12H233.889z"/>
		<path style="fill:#FFFFFF;" d="M239.685,478.878h0.417v3.586h2.21v0.361h-2.627V478.878z"/>
		<path style="fill:#FFFFFF;" d="M247.082,478.878h0.417v3.586h2.21v0.361h-2.627V478.878z"/>
		<path style="fill:#FFFFFF;" d="M260.449,479.239v1.551h2.041v0.361h-2.041v1.675h-0.417v-3.947h2.706v0.361H260.449z"/>
		<path style="fill:#FFFFFF;" d="M267.678,478.878h0.417v3.947h-0.417V478.878z"/>
		<path style="fill:#FFFFFF;" d="M273.456,478.878h0.417v3.586h2.21v0.361h-2.627V478.878z"/>
		<path style="fill:#FFFFFF;" d="M283.644,482.464v0.361h-2.791v-3.947h2.706v0.361h-2.289v1.404h2.041v0.355h-2.041v1.466H283.644z
			"/>
		<path style="fill:#FFFFFF;" d="M294.672,479.239v1.551h2.041v0.361h-2.041v1.675h-0.417v-3.947h2.706v0.361H294.672z"/>
		<path style="fill:#FFFFFF;" d="M301.5,480.851c0-1.15,0.879-2.007,2.075-2.007c1.184,0,2.069,0.851,2.069,2.007
			c0,1.156-0.885,2.007-2.069,2.007C302.379,482.858,301.5,482.002,301.5,480.851z M305.226,480.851
			c0-0.942-0.705-1.635-1.652-1.635c-0.953,0-1.663,0.693-1.663,1.635c0,0.941,0.71,1.635,1.663,1.635
			C304.522,482.486,305.226,481.793,305.226,480.851z"/>
		<path style="fill:#FFFFFF;" d="M313.351,482.825l-0.902-1.269c-0.102,0.011-0.203,0.017-0.316,0.017h-1.06v1.252h-0.417v-3.947
			h1.477c1.004,0,1.613,0.507,1.613,1.353c0,0.62-0.327,1.054-0.902,1.24l0.964,1.353H313.351z M313.328,480.231
			c0-0.632-0.417-0.992-1.207-0.992h-1.048v1.979h1.048C312.911,481.218,313.328,480.851,313.328,480.231z"/>
		<path style="fill:#FFFFFF;" d="M322.907,478.878v3.947h-0.4v-3.158l-1.551,2.656h-0.197l-1.551-2.639v3.14h-0.4v-3.947h0.344
			l1.714,2.926l1.697-2.926H322.907z"/>
		<path style="fill:#FFFFFF;" d="M330.744,481.77h-2.199l-0.473,1.054h-0.434l1.804-3.947h0.411l1.804,3.947h-0.44L330.744,481.77z
			 M330.592,481.432l-0.947-2.12l-0.947,2.12H330.592z"/>
		<path style="fill:#FFFFFF;" d="M336.957,479.239h-1.387v-0.361h3.192v0.361h-1.387v3.586h-0.417V479.239z"/>
		<path style="fill:#FFFFFF;" d="M343.063,482.346l0.164-0.321c0.282,0.276,0.784,0.479,1.302,0.479c0.739,0,1.06-0.31,1.06-0.699
			c0-1.083-2.43-0.417-2.43-1.877c0-0.581,0.451-1.083,1.455-1.083c0.446,0,0.908,0.13,1.224,0.35l-0.141,0.333
			c-0.338-0.22-0.733-0.327-1.083-0.327c-0.722,0-1.043,0.321-1.043,0.716c0,1.083,2.43,0.429,2.43,1.866
			c0,0.581-0.462,1.077-1.472,1.077C343.937,482.858,343.356,482.65,343.063,482.346z"/>
	</g>
</g>
<g>
</g>
<g>
	<path style="fill:#FFFFFF;" d="M251.569,32.151c-28.402,0-56.527,5.594-82.767,16.463s-50.083,26.801-70.166,46.884
		s-36.015,43.927-46.884,70.166S35.29,220.029,35.29,248.431s5.594,56.527,16.463,82.767c10.869,26.24,26.801,50.083,46.884,70.166
		c20.083,20.083,43.927,36.015,70.166,46.884s54.365,16.463,82.767,16.463s56.527-5.594,82.767-16.463s50.083-26.801,70.166-46.884
		c20.083-20.083,36.015-43.927,46.884-70.166c10.518-25.393,16.097-52.552,16.446-80.019l0.017-2.748l-0.017-2.748
		c-0.349-27.467-5.928-54.626-16.446-80.019c-10.869-26.24-26.801-50.083-46.884-70.166s-43.927-36.015-70.166-46.884
		S279.971,32.151,251.569,32.151z"/>
	<g transform="translate(11.703974, 10.272144)">
		<path style="fill:#AFDAD2;stroke:#FFFFFF;stroke-width:0.25;" d="M190.478,146.041c2.209,0,4.328-0.878,5.891-2.44
			c1.562-1.562,2.44-3.681,2.44-5.891s-0.878-4.328-2.44-5.891c-1.562-1.562-3.681-2.44-5.891-2.44s-4.328,0.878-5.891,2.44
			c-1.562,1.562-2.44,3.681-2.44,5.891s0.878,4.328,2.44,5.891C186.15,145.163,188.269,146.041,190.478,146.041z"/>
		<path style="fill:#AFDAD2;stroke:#FFFFFF;stroke-width:0.25;" d="M172.54,158.601c2.14,0,4.192-0.85,5.705-2.363
			c1.513-1.513,2.363-3.565,2.363-5.705s-0.85-4.192-2.363-5.705c-1.513-1.513-3.565-2.363-5.705-2.363
			c-2.14,0-4.192,0.85-5.705,2.363c-1.513,1.513-2.363,3.565-2.363,5.705s0.85,4.192,2.363,5.705
			C168.348,157.751,170.4,158.601,172.54,158.601z"/>
		<path style="fill:#AFDAD2;stroke:#FFFFFF;stroke-width:0.25;" d="M155.284,166.594c2.015,0,3.947-0.8,5.371-2.225
			c1.425-1.425,2.225-3.357,2.225-5.371c0-2.015-0.8-3.947-2.225-5.371c-1.425-1.425-3.357-2.225-5.371-2.225
			c-2.015,0-3.947,0.8-5.371,2.225s-2.225,3.357-2.225,5.371c0,2.015,0.8,3.947,2.225,5.371
			C151.337,165.794,153.269,166.594,155.284,166.594z"/>
		<path style="fill:#AFDAD2;stroke:#FFFFFF;stroke-width:0.25;" d="M205.611,136.117c2.275,0,4.457-0.904,6.065-2.512
			c1.608-1.608,2.512-3.79,2.512-6.065c0-2.275-0.904-4.457-2.512-6.065c-1.608-1.608-3.79-2.512-6.065-2.512
			c-2.275,0-4.457,0.904-6.065,2.512c-1.608,1.608-2.512,3.79-2.512,6.065c0,2.275,0.904,4.457,2.512,6.065
			C201.154,135.213,203.336,136.117,205.611,136.117z"/>
		<path style="fill:#AFDAD2;stroke:#FFFFFF;stroke-width:0.25;" d="M142.338,148.58c1.528,0,2.995-0.607,4.075-1.688
			s1.688-2.547,1.688-4.075c0-1.528-0.607-2.995-1.688-4.075s-2.547-1.688-4.075-1.688c-1.528,0-2.995,0.607-4.075,1.688
			s-1.688,2.547-1.688,4.075c0,1.528,0.607,2.995,1.688,4.075S140.809,148.58,142.338,148.58z"/>
		<path style="fill:#AFDAD2;stroke:#FFFFFF;stroke-width:0.25;" d="M128.106,180.154c1.816,0,3.558-0.721,4.842-2.006
			c1.284-1.284,2.006-3.026,2.006-4.842s-0.721-3.558-2.006-4.842c-1.284-1.284-3.026-2.006-4.842-2.006
			c-1.816,0-3.558,0.721-4.842,2.006c-1.284,1.284-2.006,3.026-2.006,4.842s0.721,3.558,2.006,4.842
			C124.548,179.432,126.29,180.154,128.106,180.154z"/>
		<path style="fill:#AFDAD2;stroke:#FFFFFF;stroke-width:0.25;" d="M136.815,125.935c2.188,0,4.287-0.869,5.834-2.417
			c1.547-1.547,2.417-3.646,2.417-5.834s-0.869-4.287-2.417-5.834c-1.547-1.547-3.646-2.417-5.834-2.417s-4.287,0.869-5.834,2.417
			c-1.547,1.547-2.417,3.646-2.417,5.834s0.869,4.287,2.417,5.834C132.528,125.066,134.627,125.935,136.815,125.935z"/>
		<path style="fill:#AFDAD2;stroke:#FFFFFF;stroke-width:0.25;" d="M159.08,141.376c1.692,0,3.315-0.672,4.512-1.869
			c1.197-1.197,1.869-2.82,1.869-4.512s-0.672-3.315-1.869-4.512c-1.197-1.197-2.82-1.869-4.512-1.869s-3.315,0.672-4.512,1.869
			c-1.197,1.197-1.869,2.82-1.869,4.512s0.672,3.315,1.869,4.512C155.764,140.704,157.388,141.376,159.08,141.376z"/>
		<path style="fill:#AFDAD2;stroke:#FFFFFF;stroke-width:0.25;" d="M269.119,122.33c1.979,0,3.877-0.786,5.276-2.185
			c1.399-1.399,2.185-3.297,2.185-5.276s-0.786-3.877-2.185-5.276s-3.297-2.185-5.276-2.185c-1.979,0-3.877,0.786-5.276,2.185
			s-2.185,3.297-2.185,5.276s0.786,3.877,2.185,5.276C265.242,121.544,267.14,122.33,269.119,122.33z"/>
		<path style="fill:#AFDAD2;stroke:#FFFFFF;stroke-width:0.25;" d="M112.616,161.886c1.2,0,2.35-0.477,3.198-1.325
			c0.848-0.848,1.325-1.999,1.325-3.198s-0.477-2.35-1.325-3.198c-0.848-0.848-1.999-1.325-3.198-1.325
			c-1.2,0-2.35,0.477-3.198,1.325c-0.848,0.848-1.325,1.999-1.325,3.198s0.477,2.35,1.325,3.198
			C110.266,161.409,111.417,161.886,112.616,161.886z"/>
		<path style="fill:#AFDAD2;stroke:#FFFFFF;stroke-width:0.25;" d="M127.646,157.627c1.423,0,2.789-0.565,3.795-1.572
			c1.006-1.006,1.572-2.372,1.572-3.795c0-1.423-0.565-2.789-1.572-3.795c-1.006-1.006-2.372-1.572-3.795-1.572
			s-2.789,0.566-3.795,1.572c-1.006,1.006-1.572,2.372-1.572,3.795c0,1.423,0.565,2.789,1.572,3.795
			C124.858,157.062,126.223,157.627,127.646,157.627z"/>
		<path style="fill:#AFDAD2;stroke:#FFFFFF;stroke-width:0.25;" d="M100.24,140.619c1.887,0,3.697-0.75,5.031-2.084
			c1.334-1.334,2.084-3.144,2.084-5.031c0-1.887-0.75-3.697-2.084-5.031c-1.334-1.334-3.144-2.084-5.031-2.084
			c-1.887,0-3.697,0.75-5.031,2.084c-1.334,1.334-2.084,3.144-2.084,5.031c0,1.887,0.75,3.697,2.084,5.031
			C96.543,139.87,98.353,140.619,100.24,140.619z"/>
		<path style="fill:#AFDAD2;stroke:#FFFFFF;stroke-width:0.25;" d="M128.236,137.483c0.984,0,1.927-0.391,2.623-1.086
			c0.696-0.696,1.086-1.639,1.086-2.623c0-0.984-0.391-1.927-1.086-2.623c-0.696-0.696-1.639-1.086-2.623-1.086
			c-0.984,0-1.927,0.391-2.623,1.086c-0.696,0.696-1.086,1.639-1.086,2.623c0,0.984,0.391,1.927,1.086,2.623
			C126.309,137.092,127.252,137.483,128.236,137.483z"/>
		<path style="fill:#AFDAD2;stroke:#FFFFFF;stroke-width:0.25;" d="M177.9,131.7c1.836,0,3.598-0.73,4.896-2.028
			c1.299-1.298,2.028-3.06,2.028-4.896s-0.73-3.598-2.028-4.896c-1.298-1.299-3.06-2.028-4.896-2.028s-3.598,0.73-4.896,2.028
			c-1.299,1.298-2.028,3.06-2.028,4.896s0.73,3.598,2.028,4.896C174.302,130.97,176.063,131.7,177.9,131.7z"/>
		<path style="fill:#AFDAD2;stroke:#FFFFFF;stroke-width:0.25;" d="M230.506,135.708c1.585,0,3.105-0.63,4.225-1.75
			c1.121-1.121,1.75-2.641,1.75-4.225c0-1.585-0.63-3.105-1.75-4.225s-2.641-1.75-4.225-1.75s-3.105,0.63-4.225,1.75
			c-1.121,1.121-1.75,2.641-1.75,4.225c0,1.585,0.63,3.105,1.75,4.225C227.401,135.078,228.921,135.708,230.506,135.708z"/>
		<path style="fill:#AFDAD2;stroke:#FFFFFF;stroke-width:0.25;" d="M241.444,98.424c1.037,0,2.032-0.412,2.766-1.146
			s1.146-1.728,1.146-2.766s-0.412-2.032-1.146-2.766c-0.733-0.733-1.728-1.146-2.766-1.146c-1.037,0-2.032,0.412-2.766,1.146
			c-0.733,0.733-1.146,1.728-1.146,2.766s0.412,2.032,1.146,2.766S240.407,98.424,241.444,98.424z"/>
		<path style="fill:#AFDAD2;stroke:#FFFFFF;stroke-width:0.25;" d="M254.159,120.94c1.733,0,3.396-0.689,4.621-1.914
			c1.226-1.226,1.914-2.888,1.914-4.621s-0.689-3.396-1.914-4.621c-1.226-1.226-2.888-1.914-4.621-1.914s-3.396,0.689-4.621,1.914
			c-1.226,1.226-1.914,2.888-1.914,4.621s0.689,3.396,1.914,4.621C250.763,120.251,252.426,120.94,254.159,120.94z"/>
		<path style="fill:#AFDAD2;stroke:#FFFFFF;stroke-width:0.25;" d="M188.87,117.127c1.781,0,3.489-0.708,4.748-1.967
			c1.259-1.259,1.967-2.967,1.967-4.748s-0.708-3.489-1.967-4.748c-1.259-1.259-2.967-1.967-4.748-1.967
			c-1.781,0-3.489,0.708-4.748,1.967c-1.259,1.259-1.967,2.967-1.967,4.748s0.708,3.489,1.967,4.748
			C185.381,116.42,187.089,117.127,188.87,117.127z"/>
		<path style="fill:#AFDAD2;stroke:#FFFFFF;stroke-width:0.25;" d="M104.747,181.667c1.445,0,2.831-0.574,3.853-1.596
			c1.022-1.022,1.596-2.408,1.596-3.853s-0.574-2.831-1.596-3.853c-1.022-1.022-2.408-1.596-3.853-1.596s-2.831,0.574-3.853,1.596
			c-1.022,1.022-1.596,2.408-1.596,3.853s0.574,2.831,1.596,3.853C101.916,181.093,103.302,181.667,104.747,181.667z"/>
		<path style="fill:#AFDAD2;stroke:#FFFFFF;stroke-width:0.25;" d="M284.228,123.756c2.201,0,4.312-0.874,5.868-2.431
			s2.431-3.667,2.431-5.868c0-2.201-0.874-4.312-2.431-5.868c-1.556-1.556-3.667-2.431-5.868-2.431
			c-2.201,0-4.312,0.874-5.868,2.431c-1.556,1.556-2.431,3.667-2.431,5.868c0,2.201,0.874,4.312,2.431,5.868
			C279.916,122.882,282.027,123.756,284.228,123.756z"/>
		<path style="fill:#AFDAD2;stroke:#FFFFFF;stroke-width:0.25;" d="M204.149,118.135c2.02,0,3.958-0.803,5.386-2.231
			c1.429-1.429,2.231-3.366,2.231-5.386c0-2.02-0.803-3.958-2.231-5.386c-1.428-1.429-3.366-2.231-5.386-2.231
			c-2.02,0-3.958,0.803-5.386,2.231c-1.429,1.429-2.231,3.366-2.231,5.386c0,2.02,0.803,3.958,2.231,5.386
			C200.191,117.333,202.129,118.135,204.149,118.135z"/>
		<path style="fill:#AFDAD2;stroke:#FFFFFF;stroke-width:0.25;" d="M115.643,124.276c1.873,0,3.67-0.744,4.994-2.069
			s2.069-3.121,2.069-4.994c0-1.873-0.744-3.67-2.069-4.994c-1.324-1.324-3.121-2.069-4.994-2.069c-1.873,0-3.67,0.744-4.994,2.069
			c-1.324,1.324-2.069,3.121-2.069,4.994c0,1.873,0.744,3.67,2.069,4.994C111.973,123.531,113.77,124.276,115.643,124.276z"/>
		<path style="fill:#AFDAD2;stroke:#FFFFFF;stroke-width:0.25;" d="M154.949,106.041c2.165,0,4.242-0.86,5.774-2.391
			c1.531-1.531,2.391-3.608,2.391-5.773s-0.86-4.242-2.391-5.774c-1.531-1.531-3.608-2.391-5.774-2.391s-4.242,0.86-5.773,2.391
			c-1.531,1.531-2.391,3.608-2.391,5.774s0.86,4.242,2.391,5.773C150.706,105.181,152.783,106.041,154.949,106.041z"/>
		<path style="fill:#AFDAD2;stroke:#FFFFFF;stroke-width:0.25;" d="M308.141,117.037c1.337,0,2.62-0.531,3.566-1.477
			c0.946-0.946,1.477-2.229,1.477-3.566c0-1.338-0.531-2.62-1.477-3.566c-0.946-0.946-2.229-1.477-3.566-1.477
			c-1.338,0-2.62,0.531-3.566,1.477c-0.946,0.946-1.477,2.229-1.477,3.566c0,1.338,0.531,2.62,1.477,3.566
			C305.52,116.505,306.803,117.037,308.141,117.037z"/>
		<path style="fill:#AFDAD2;stroke:#FFFFFF;stroke-width:0.25;" d="M132.463,96.44c1.701,0,3.333-0.676,4.537-1.879
			c1.203-1.203,1.879-2.835,1.879-4.537s-0.676-3.333-1.879-4.537s-2.835-1.879-4.537-1.879c-1.701,0-3.333,0.676-4.537,1.879
			c-1.203,1.203-1.879,2.835-1.879,4.537s0.676,3.333,1.879,4.537C129.129,95.764,130.761,96.44,132.463,96.44z"/>
		<path style="fill:#AFDAD2;stroke:#FFFFFF;stroke-width:0.25;" d="M161.395,125.176c1.448,0,2.837-0.575,3.861-1.599
			c1.024-1.024,1.599-2.413,1.599-3.861c0-1.448-0.575-2.837-1.599-3.861c-1.024-1.024-2.413-1.599-3.861-1.599
			c-1.448,0-2.837,0.575-3.861,1.599c-1.024,1.024-1.599,2.413-1.599,3.861c0,1.448,0.575,2.837,1.599,3.861
			C158.558,124.601,159.947,125.176,161.395,125.176z"/>
		<path style="fill:#AFDAD2;stroke:#FFFFFF;stroke-width:0.25;" d="M174.473,113.325c1.471,0,2.882-0.585,3.923-1.625
			c1.04-1.04,1.625-2.451,1.625-3.923s-0.585-2.882-1.625-3.923c-1.04-1.04-2.451-1.625-3.923-1.625
			c-1.471,0-2.882,0.585-3.923,1.625c-1.04,1.04-1.625,2.451-1.625,3.923s0.585,2.882,1.625,3.923
			C171.591,112.741,173.002,113.325,174.473,113.325z"/>
		<path style="fill:#AFDAD2;stroke:#FFFFFF;stroke-width:0.25;" d="M88.798,127.417c1.481,0,2.902-0.588,3.949-1.636
			c1.047-1.047,1.636-2.468,1.636-3.949s-0.588-2.902-1.636-3.949c-1.047-1.047-2.468-1.636-3.949-1.636
			c-1.481,0-2.902,0.588-3.949,1.636c-1.047,1.047-1.636,2.468-1.636,3.949s0.588,2.902,1.636,3.949
			C85.897,126.829,87.317,127.417,88.798,127.417z"/>
		<path style="fill:#AFDAD2;stroke:#FFFFFF;stroke-width:0.25;" d="M104.178,105.702c1.359,0,2.662-0.54,3.623-1.501
			c0.961-0.961,1.501-2.264,1.501-3.623c0-1.359-0.54-2.662-1.501-3.623c-0.961-0.961-2.264-1.501-3.623-1.501
			c-1.359,0-2.662,0.54-3.623,1.501c-0.961,0.961-1.501,2.264-1.501,3.623c0,1.359,0.54,2.662,1.501,3.623
			C101.516,105.162,102.819,105.702,104.178,105.702z"/>
		<path style="fill:#AFDAD2;stroke:#FFFFFF;stroke-width:0.25;" d="M222.387,121.607c1.139,0,2.231-0.452,3.037-1.258
			c0.805-0.805,1.258-1.898,1.258-3.037c0-1.139-0.452-2.231-1.258-3.037c-0.805-0.805-1.898-1.258-3.037-1.258
			s-2.231,0.452-3.037,1.258c-0.805,0.805-1.258,1.898-1.258,3.037c0,1.139,0.452,2.231,1.258,3.037
			C220.156,121.155,221.248,121.607,222.387,121.607z"/>
		<path style="fill:#AFDAD2;stroke:#FFFFFF;stroke-width:0.25;" d="M84.858,155.69c1.882,0,3.688-0.748,5.019-2.079
			c1.331-1.331,2.079-3.137,2.079-5.019c0-1.882-0.748-3.688-2.079-5.019c-1.331-1.331-3.137-2.079-5.019-2.079
			s-3.688,0.748-5.019,2.079c-1.331,1.331-2.079,3.137-2.079,5.019c0,1.882,0.748,3.688,2.079,5.019
			C81.17,154.942,82.976,155.69,84.858,155.69z"/>
		<path style="fill:#AFDAD2;stroke:#FFFFFF;stroke-width:0.25;" d="M69.006,143.723c1.415,0,2.772-0.562,3.773-1.563
			c1.001-1.001,1.563-2.358,1.563-3.773c0-1.415-0.562-2.772-1.563-3.773c-1.001-1.001-2.358-1.563-3.773-1.563
			s-2.772,0.562-3.773,1.563c-1.001,1.001-1.563,2.358-1.563,3.773c0,1.415,0.562,2.772,1.563,3.773
			C66.234,143.161,67.591,143.723,69.006,143.723z"/>
		<path style="fill:#AFDAD2;stroke:#FFFFFF;stroke-width:0.25;" d="M237.033,120.36c1.423,0,2.789-0.566,3.795-1.572
			c1.006-1.006,1.572-2.372,1.572-3.795s-0.566-2.789-1.572-3.795c-1.006-1.006-2.372-1.572-3.795-1.572
			c-1.423,0-2.789,0.566-3.795,1.572c-1.006,1.006-1.572,2.372-1.572,3.795s0.566,2.789,1.572,3.795
			C234.245,119.795,235.61,120.36,237.033,120.36z"/>
		<path style="fill:#AFDAD2;stroke:#FFFFFF;stroke-width:0.25;" d="M115.008,148.23c2.194,0,4.299-0.872,5.851-2.424
			c1.552-1.552,2.424-3.656,2.424-5.851c0-2.194-0.872-4.299-2.424-5.851c-1.552-1.552-3.656-2.424-5.851-2.424
			s-4.299,0.872-5.851,2.424c-1.552,1.552-2.424,3.656-2.424,5.851c0,2.194,0.872,4.299,2.424,5.851S112.814,148.23,115.008,148.23z
			"/>
		<path style="fill:#AFDAD2;stroke:#FFFFFF;stroke-width:0.25;" d="M297.289,110.61c2.2,0,4.31-0.874,5.865-2.43
			c1.556-1.556,2.43-3.666,2.43-5.865c0-2.2-0.874-4.31-2.43-5.865c-1.556-1.556-3.666-2.43-5.865-2.43
			c-2.2,0-4.31,0.874-5.865,2.43c-1.556,1.556-2.43,3.666-2.43,5.865c0,2.2,0.874,4.31,2.43,5.865
			C292.979,109.736,295.089,110.61,297.289,110.61z"/>
		<path style="fill:#AFDAD2;stroke:#FFFFFF;stroke-width:0.25;" d="M89.258,188.771c1.277,0,2.501-0.507,3.404-1.41
			c0.903-0.903,1.41-2.127,1.41-3.404c0-1.277-0.507-2.501-1.41-3.404s-2.127-1.41-3.404-1.41c-1.277,0-2.501,0.507-3.404,1.41
			s-1.41,2.127-1.41,3.404c0,1.277,0.507,2.501,1.41,3.404C86.756,188.264,87.981,188.771,89.258,188.771z"/>
		<path style="fill:#AFDAD2;stroke:#FFFFFF;stroke-width:0.25;" d="M209.522,94.858c1.755,0,3.439-0.697,4.681-1.939
			c1.241-1.241,1.939-2.925,1.939-4.681c0-1.755-0.697-3.439-1.939-4.681s-2.925-1.939-4.681-1.939
			c-1.755,0-3.439,0.697-4.681,1.939c-1.241,1.241-1.939,2.925-1.939,4.681c0,1.755,0.697,3.439,1.939,4.681
			C206.083,94.161,207.767,94.858,209.522,94.858z"/>
		<path style="fill:#AFDAD2;stroke:#FFFFFF;stroke-width:0.25;" d="M347.052,103.973c1.793,0,3.513-0.712,4.781-1.98
			c1.268-1.268,1.98-2.988,1.98-4.781c0-1.793-0.712-3.513-1.98-4.781c-1.268-1.268-2.988-1.98-4.781-1.98s-3.513,0.712-4.781,1.98
			c-1.268,1.268-1.98,2.988-1.98,4.781c0,1.793,0.712,3.513,1.98,4.781C343.538,103.26,345.258,103.973,347.052,103.973z"/>
		<path style="fill:#AFDAD2;stroke:#FFFFFF;stroke-width:0.25;" d="M257.098,100.528c1.428,0,2.797-0.567,3.807-1.577
			c1.01-1.01,1.577-2.379,1.577-3.807s-0.567-2.797-1.577-3.807s-2.379-1.577-3.807-1.577s-2.797,0.567-3.807,1.577
			c-1.01,1.01-1.577,2.379-1.577,3.807s0.567,2.797,1.577,3.807C254.301,99.961,255.67,100.528,257.098,100.528z"/>
		<path style="fill:#AFDAD2;stroke:#FFFFFF;stroke-width:0.25;" d="M139.714,171.559c1.862,0,3.647-0.74,4.964-2.056
			c1.316-1.316,2.056-3.102,2.056-4.964c0-1.862-0.74-3.647-2.056-4.964c-1.316-1.316-3.102-2.056-4.964-2.056
			s-3.647,0.74-4.964,2.056c-1.316,1.316-2.056,3.102-2.056,4.964c0,1.862,0.74,3.647,2.056,4.964
			C136.067,170.82,137.852,171.559,139.714,171.559z"/>
		<path style="fill:#AFDAD2;stroke:#FFFFFF;stroke-width:0.25;" d="M275.359,102.846c1.782,0,3.492-0.708,4.752-1.968
			c1.26-1.26,1.968-2.97,1.968-4.752s-0.708-3.492-1.968-4.752c-1.26-1.26-2.97-1.968-4.752-1.968c-1.782,0-3.492,0.708-4.752,1.968
			s-1.968,2.97-1.968,4.752s0.708,3.492,1.968,4.752S273.577,102.846,275.359,102.846z"/>
		<path style="fill:#AFDAD2;stroke:#FFFFFF;stroke-width:0.25;" d="M322.948,109.397c1.477,0,2.894-0.587,3.938-1.631
			c1.044-1.044,1.631-2.461,1.631-3.938s-0.587-2.894-1.631-3.938c-1.044-1.044-2.461-1.631-3.938-1.631
			c-1.477,0-2.894,0.587-3.938,1.631c-1.044,1.044-1.631,2.461-1.631,3.938s0.587,2.894,1.631,3.938
			S321.471,109.397,322.948,109.397z"/>
		<path style="fill:#AFDAD2;stroke:#FFFFFF;stroke-width:0.25;" d="M375.525,121.468c1.331,0,2.608-0.529,3.55-1.47
			c0.941-0.941,1.47-2.218,1.47-3.55c0-1.331-0.529-2.608-1.47-3.55c-0.941-0.941-2.218-1.47-3.55-1.47s-2.608,0.529-3.55,1.47
			c-0.941,0.941-1.47,2.218-1.47,3.55c0,1.331,0.529,2.608,1.47,3.55C372.916,120.939,374.193,121.468,375.525,121.468z"/>
		<path style="fill:#AFDAD2;stroke:#FFFFFF;stroke-width:0.25;" d="M187.66,84.579c1.147,0,2.248-0.456,3.059-1.267
			c0.811-0.811,1.267-1.912,1.267-3.059c0-1.147-0.456-2.248-1.267-3.059c-0.811-0.811-1.912-1.267-3.059-1.267
			c-1.147,0-2.248,0.456-3.059,1.267c-0.811,0.811-1.267,1.912-1.267,3.059c0,1.147,0.456,2.248,1.267,3.059
			C185.412,84.123,186.513,84.579,187.66,84.579z"/>
		<path style="fill:#AFDAD2;stroke:#FFFFFF;stroke-width:0.25;" d="M227.002,72.701c1.68,0,3.291-0.667,4.479-1.855
			c1.188-1.188,1.855-2.799,1.855-4.479s-0.667-3.291-1.855-4.479c-1.188-1.188-2.799-1.855-4.479-1.855
			c-1.68,0-3.291,0.667-4.479,1.855c-1.188,1.188-1.855,2.799-1.855,4.479s0.667,3.291,1.855,4.479
			C223.711,72.034,225.322,72.701,227.002,72.701z"/>
		<path style="fill:#AFDAD2;stroke:#FFFFFF;stroke-width:0.25;" d="M374.405,106.658c2.213,0,4.336-0.879,5.901-2.444
			c1.565-1.565,2.444-3.688,2.444-5.901c0-2.213-0.879-4.336-2.444-5.901c-1.565-1.565-3.688-2.444-5.901-2.444
			s-4.336,0.879-5.901,2.444c-1.565,1.565-2.444,3.688-2.444,5.901c0,2.213,0.879,4.336,2.444,5.901
			C370.069,105.779,372.192,106.658,374.405,106.658z"/>
		<path style="fill:#AFDAD2;stroke:#FFFFFF;stroke-width:0.25;" d="M217.444,110.068c2.092,0,4.098-0.831,5.577-2.31
			c1.479-1.479,2.31-3.485,2.31-5.577s-0.831-4.098-2.31-5.577c-1.479-1.479-3.485-2.31-5.577-2.31c-2.092,0-4.098,0.831-5.577,2.31
			s-2.31,3.485-2.31,5.577s0.831,4.098,2.31,5.577S215.352,110.068,217.444,110.068z"/>
		<path style="fill:#AFDAD2;stroke:#FFFFFF;stroke-width:0.25;" d="M246.621,80.512c2.086,0,4.088-0.829,5.563-2.304
			c1.475-1.475,2.304-3.477,2.304-5.563c0-2.086-0.829-4.088-2.304-5.563c-1.475-1.475-3.477-2.304-5.563-2.304
			c-2.086,0-4.088,0.829-5.563,2.304c-1.475,1.475-2.304,3.477-2.304,5.563c0,2.086,0.829,4.088,2.304,5.563
			C242.533,79.683,244.535,80.512,246.621,80.512z"/>
		<path style="fill:#AFDAD2;stroke:#FFFFFF;stroke-width:0.25;" d="M314.824,90.096c2.161,0,4.235-0.859,5.763-2.387
			s2.387-3.602,2.387-5.763s-0.859-4.235-2.387-5.763c-1.528-1.528-3.602-2.387-5.763-2.387c-2.161,0-4.235,0.859-5.763,2.387
			c-1.528,1.528-2.387,3.602-2.387,5.763s0.859,4.235,2.387,5.763C310.59,89.237,312.663,90.096,314.824,90.096z"/>
		<path style="fill:#AFDAD2;stroke:#FFFFFF;stroke-width:0.25;" d="M399.201,141.333c2.046,0,4.009-0.813,5.456-2.26
			c1.447-1.447,2.26-3.41,2.26-5.456s-0.813-4.009-2.26-5.456c-1.447-1.447-3.41-2.26-5.456-2.26c-2.046,0-4.009,0.813-5.456,2.26
			c-1.447,1.447-2.26,3.41-2.26,5.456s0.813,4.009,2.26,5.456C395.192,140.52,397.155,141.333,399.201,141.333z"/>
		<path style="fill:#AFDAD2;stroke:#FFFFFF;stroke-width:0.25;" d="M225.22,47.916c1.168,0,2.289-0.464,3.115-1.29
			c0.826-0.826,1.29-1.947,1.29-3.115c0-1.168-0.464-2.289-1.29-3.115c-0.826-0.826-1.947-1.29-3.115-1.29s-2.289,0.464-3.115,1.29
			c-0.826,0.826-1.29,1.947-1.29,3.115c0,1.168,0.464,2.289,1.29,3.115C222.931,47.452,224.052,47.916,225.22,47.916z"/>
		<path style="fill:#AFDAD2;stroke:#FFFFFF;stroke-width:0.25;" d="M295.575,94.682c1.962,0,3.844-0.779,5.231-2.167
			s2.167-3.269,2.167-5.231c0-1.962-0.779-3.844-2.167-5.231c-1.387-1.387-3.269-2.167-5.231-2.167s-3.844,0.779-5.231,2.167
			c-1.387,1.387-2.167,3.269-2.167,5.231c0,1.962,0.779,3.844,2.167,5.231C291.731,93.903,293.613,94.682,295.575,94.682z"/>
		<path style="fill:#AFDAD2;stroke:#FFFFFF;stroke-width:0.25;" d="M285.677,80.473c1.584,0,3.103-0.629,4.223-1.749
			c1.12-1.12,1.749-2.639,1.749-4.223c0-1.584-0.629-3.103-1.749-4.223c-1.12-1.12-2.639-1.749-4.223-1.749
			c-1.584,0-3.103,0.629-4.223,1.749c-1.12,1.12-1.749,2.639-1.749,4.223c0,1.584,0.629,3.103,1.749,4.223
			C282.574,79.843,284.093,80.473,285.677,80.473z"/>
		<path style="fill:#AFDAD2;stroke:#FFFFFF;stroke-width:0.25;" d="M255.668,67.47c2.032,0,3.981-0.807,5.418-2.244
			c1.437-1.437,2.244-3.386,2.244-5.418s-0.807-3.981-2.244-5.418c-1.437-1.437-3.386-2.244-5.418-2.244
			c-2.032,0-3.981,0.807-5.418,2.244c-1.437,1.437-2.244,3.386-2.244,5.418s0.807,3.981,2.244,5.418
			C251.687,66.663,253.636,67.47,255.668,67.47z"/>
		<path style="fill:#AFDAD2;stroke:#FFFFFF;stroke-width:0.25;" d="M171.149,98.717c2.278,0,4.463-0.905,6.073-2.516
			c1.611-1.611,2.516-3.796,2.516-6.073c0-2.278-0.905-4.463-2.516-6.073c-1.611-1.611-3.796-2.516-6.073-2.516
			s-4.463,0.905-6.073,2.516c-1.611,1.611-2.516,3.796-2.516,6.073c0,2.278,0.905,4.463,2.516,6.073
			C166.686,97.812,168.871,98.717,171.149,98.717z"/>
		<path style="fill:#AFDAD2;stroke:#FFFFFF;stroke-width:0.25;" d="M118.157,86.069c1.24,0,2.43-0.493,3.307-1.37
			c0.877-0.877,1.37-2.067,1.37-3.307c0-1.24-0.493-2.43-1.37-3.307s-2.067-1.37-3.307-1.37c-1.24,0-2.43,0.493-3.307,1.37
			c-0.877,0.877-1.37,2.067-1.37,3.307c0,1.24,0.493,2.43,1.37,3.307C115.726,85.577,116.916,86.069,118.157,86.069z"/>
		<path style="fill:#AFDAD2;stroke:#FFFFFF;stroke-width:0.25;" d="M140.394,82.933c1.608,0,3.151-0.639,4.288-1.776
			s1.776-2.68,1.776-4.288c0-1.608-0.639-3.151-1.776-4.288s-2.68-1.776-4.288-1.776c-1.608,0-3.151,0.639-4.288,1.776
			c-1.137,1.137-1.776,2.68-1.776,4.288c0,1.608,0.639,3.151,1.776,4.288C137.243,82.294,138.786,82.933,140.394,82.933z"/>
		<path style="fill:#AFDAD2;stroke:#FFFFFF;stroke-width:0.25;" d="M344.129,119.668c1.982,0,3.883-0.788,5.285-2.189
			c1.402-1.402,2.189-3.303,2.189-5.285s-0.788-3.883-2.189-5.285c-1.402-1.402-3.303-2.189-5.285-2.189
			c-1.982,0-3.883,0.788-5.285,2.189c-1.402,1.402-2.189,3.303-2.189,5.285s0.788,3.883,2.189,5.285
			C340.246,118.881,342.147,119.668,344.129,119.668z"/>
		<path style="fill:#AFDAD2;stroke:#FFFFFF;stroke-width:0.25;" d="M262.13,80.272c1.101,0,2.156-0.437,2.935-1.216
			c0.778-0.778,1.216-1.834,1.216-2.935c0-1.101-0.437-2.156-1.216-2.935c-0.778-0.778-1.834-1.216-2.935-1.216
			s-2.156,0.437-2.935,1.216c-0.778,0.778-1.216,1.834-1.216,2.935c0,1.101,0.437,2.156,1.216,2.935
			C259.973,79.834,261.029,80.272,262.13,80.272z"/>
		<path style="fill:#AFDAD2;stroke:#FFFFFF;stroke-width:0.25;" d="M173.996,81.107c2.088,0,4.09-0.829,5.566-2.306
			c1.476-1.476,2.306-3.479,2.306-5.566c0-2.088-0.829-4.09-2.306-5.566c-1.476-1.476-3.479-2.306-5.566-2.306
			s-4.09,0.829-5.566,2.306c-1.476,1.476-2.306,3.479-2.306,5.566c0,2.088,0.829,4.09,2.306,5.566
			C169.906,80.277,171.908,81.107,173.996,81.107z"/>
		<path style="fill:#AFDAD2;stroke:#FFFFFF;stroke-width:0.25;" d="M58.488,177.604c1.815,0,3.556-0.721,4.84-2.005
			c1.283-1.283,2.005-3.025,2.005-4.84s-0.721-3.556-2.005-4.84c-1.283-1.283-3.025-2.005-4.84-2.005s-3.556,0.721-4.84,2.005
			c-1.283,1.283-2.005,3.025-2.005,4.84s0.721,3.556,2.005,4.84C54.931,176.883,56.672,177.604,58.488,177.604z"/>
		<path style="fill:#AFDAD2;stroke:#FFFFFF;stroke-width:0.25;" d="M76.719,179.964c2.109,0,4.131-0.838,5.623-2.329
			c1.491-1.491,2.329-3.514,2.329-5.623s-0.838-4.131-2.329-5.623c-1.491-1.491-3.514-2.329-5.623-2.329s-4.131,0.838-5.623,2.329
			c-1.491,1.491-2.329,3.514-2.329,5.623s0.838,4.131,2.329,5.623C72.588,179.126,74.61,179.964,76.719,179.964z"/>
		<path style="fill:#AFDAD2;stroke:#FFFFFF;stroke-width:0.25;" d="M140.978,109.862c2.03,0,3.976-0.806,5.411-2.241
			c1.435-1.435,2.241-3.382,2.241-5.411c0-2.03-0.806-3.976-2.241-5.411c-1.435-1.435-3.382-2.241-5.411-2.241
			s-3.976,0.806-5.411,2.241c-1.435,1.435-2.241,3.382-2.241,5.411c0,2.03,0.806,3.976,2.241,5.411
			C137.001,109.055,138.948,109.862,140.978,109.862z"/>
		<path style="fill:#AFDAD2;stroke:#FFFFFF;stroke-width:0.25;" d="M60.736,160.567c1.573,0,3.082-0.625,4.194-1.737
			c1.112-1.112,1.737-2.621,1.737-4.194c0-1.573-0.625-3.082-1.737-4.194c-1.112-1.112-2.621-1.737-4.194-1.737
			c-1.573,0-3.082,0.625-4.194,1.737c-1.112,1.112-1.737,2.621-1.737,4.194c0,1.573,0.625,3.082,1.737,4.194
			C57.655,159.942,59.163,160.567,60.736,160.567z"/>
		<path style="fill:#AFDAD2;stroke:#FFFFFF;stroke-width:0.25;" d="M299.897,74.466c1.721,0,3.372-0.684,4.59-1.901
			c1.217-1.217,1.901-2.868,1.901-4.59c0-1.721-0.684-3.372-1.901-4.59s-2.868-1.901-4.59-1.901c-1.721,0-3.372,0.684-4.59,1.901
			c-1.217,1.217-1.901,2.868-1.901,4.59c0,1.721,0.684,3.372,1.901,4.59C296.525,73.782,298.176,74.466,299.897,74.466z"/>
		<path style="fill:#AFDAD2;stroke:#FFFFFF;stroke-width:0.25;" d="M119.206,101.72c1.566,0,3.069-0.622,4.176-1.73
			c1.108-1.108,1.73-2.61,1.73-4.176c0-1.566-0.622-3.069-1.73-4.176c-1.108-1.108-2.61-1.73-4.176-1.73s-3.069,0.622-4.176,1.73
			c-1.108,1.108-1.73,2.61-1.73,4.176c0,1.566,0.622,3.069,1.73,4.176C116.138,101.098,117.64,101.72,119.206,101.72z"/>
		<path style="fill:#AFDAD2;stroke:#FFFFFF;stroke-width:0.25;" d="M90.573,172.863c2.197,0,4.304-0.873,5.858-2.426
			s2.426-3.661,2.426-5.858s-0.873-4.304-2.426-5.858c-1.553-1.553-3.661-2.426-5.858-2.426s-4.304,0.873-5.858,2.426
			c-1.553,1.553-2.426,3.661-2.426,5.858s0.873,4.304,2.426,5.858C86.269,171.991,88.376,172.863,90.573,172.863z"/>
		<path style="fill:#AFDAD2;stroke:#FFFFFF;stroke-width:0.25;" d="M359.856,116.492c2.152,0,4.217-0.855,5.739-2.377
			c1.522-1.522,2.377-3.587,2.377-5.739s-0.855-4.217-2.377-5.739c-1.522-1.522-3.587-2.377-5.739-2.377
			c-2.152,0-4.217,0.855-5.739,2.377c-1.522,1.522-2.377,3.587-2.377,5.739s0.855,4.217,2.377,5.739
			C355.639,115.636,357.703,116.492,359.856,116.492z"/>
		<path style="fill:#AFDAD2;stroke:#FFFFFF;stroke-width:0.25;" d="M389.118,115.525c1.48,0,2.9-0.588,3.947-1.635
			c1.047-1.047,1.635-2.467,1.635-3.947s-0.588-2.9-1.635-3.947c-1.047-1.047-2.467-1.635-3.947-1.635
			c-1.48,0-2.9,0.588-3.947,1.635c-1.047,1.047-1.635,2.467-1.635,3.947s0.588,2.9,1.635,3.947
			C386.218,114.937,387.638,115.525,389.118,115.525z"/>
		<path style="fill:#AFDAD2;stroke:#FFFFFF;stroke-width:0.25;" d="M196.135,101.709c1.649,0,3.23-0.655,4.396-1.821
			c1.166-1.166,1.821-2.748,1.821-4.396c0-1.649-0.655-3.23-1.821-4.396c-1.166-1.166-2.748-1.821-4.396-1.821
			c-1.649,0-3.23,0.655-4.396,1.821c-1.166,1.166-1.821,2.748-1.821,4.396c0,1.649,0.655,3.23,1.821,4.396
			C192.905,101.054,194.486,101.709,196.135,101.709z"/>
		<path style="fill:#AFDAD2;stroke:#FFFFFF;stroke-width:0.25;" d="M332.623,94.719c1.381,0,2.706-0.549,3.682-1.525
			c0.977-0.977,1.525-2.301,1.525-3.682c0-1.381-0.549-2.706-1.525-3.682c-0.977-0.977-2.301-1.525-3.682-1.525
			s-2.706,0.549-3.682,1.525c-0.977,0.977-1.525,2.301-1.525,3.682c0,1.381,0.549,2.706,1.525,3.682
			C329.917,94.171,331.242,94.719,332.623,94.719z"/>
		<path style="fill:#AFDAD2;stroke:#FFFFFF;stroke-width:0.25;" d="M330.385,81.671c2.252,0,4.413-0.895,6.006-2.488
			c1.593-1.593,2.488-3.753,2.488-6.006c0-2.252-0.895-4.413-2.488-6.006c-1.593-1.593-3.753-2.488-6.006-2.488
			c-2.252,0-4.413,0.895-6.006,2.488c-1.593,1.593-2.488,3.753-2.488,6.006c0,2.252,0.895,4.413,2.488,6.006
			C325.972,80.776,328.133,81.671,330.385,81.671z"/>
		<path style="fill:#AFDAD2;stroke:#FFFFFF;stroke-width:0.25;" d="M225.671,96.145c2.014,0,3.945-0.8,5.369-2.224
			c1.424-1.424,2.224-3.355,2.224-5.369c0-2.014-0.8-3.945-2.224-5.369c-1.424-1.424-3.355-2.224-5.369-2.224
			c-2.014,0-3.945,0.8-5.369,2.224s-2.224,3.355-2.224,5.369c0,2.014,0.8,3.945,2.224,5.369
			C221.726,95.345,223.658,96.145,225.671,96.145z"/>
		<path style="fill:#AFDAD2;stroke:#FFFFFF;stroke-width:0.25;" d="M386.134,132.851c1.728,0,3.385-0.686,4.606-1.908
			c1.222-1.222,1.908-2.879,1.908-4.606c0-1.728-0.686-3.385-1.908-4.606c-1.222-1.222-2.879-1.908-4.606-1.908
			c-1.728,0-3.385,0.686-4.606,1.908c-1.222,1.222-1.908,2.879-1.908,4.606c0,1.728,0.686,3.385,1.908,4.606
			C382.749,132.165,384.406,132.851,386.134,132.851z"/>
		<path style="fill:#AFDAD2;stroke:#FFFFFF;stroke-width:0.25;" d="M75.158,191.669c1.013,0,1.985-0.403,2.701-1.119
			s1.119-1.688,1.119-2.701c0-1.013-0.403-1.985-1.119-2.701c-0.716-0.716-1.688-1.119-2.701-1.119s-1.985,0.403-2.701,1.119
			c-0.716,0.716-1.119,1.688-1.119,2.701c0,1.013,0.403,1.985,1.119,2.701C73.173,191.266,74.145,191.669,75.158,191.669z"/>
		<path style="fill:#AFDAD2;stroke:#FFFFFF;stroke-width:0.25;" d="M155.453,85.727c1.892,0,3.706-0.752,5.044-2.089
			s2.089-3.152,2.089-5.044s-0.752-3.706-2.089-5.044c-1.338-1.338-3.152-2.089-5.044-2.089c-1.892,0-3.706,0.752-5.044,2.089
			c-1.338,1.338-2.089,3.152-2.089,5.044s0.752,3.706,2.089,5.044C151.747,84.976,153.561,85.727,155.453,85.727z"/>
		<path style="fill:#AFDAD2;stroke:#FFFFFF;stroke-width:0.25;" d="M207.52,74.096c1.351,0,2.647-0.537,3.603-1.492
			c0.955-0.955,1.492-2.251,1.492-3.603c0-1.351-0.537-2.647-1.492-3.603s-2.251-1.492-3.603-1.492s-2.647,0.537-3.603,1.492
			s-1.492,2.251-1.492,3.603c0,1.351,0.537,2.647,1.492,3.603C204.873,73.559,206.169,74.096,207.52,74.096z"/>
		<path style="fill:#AFDAD2;stroke:#FFFFFF;stroke-width:0.25;" d="M355.387,89.786c1.7,0,3.331-0.675,4.533-1.878
			c1.202-1.202,1.878-2.833,1.878-4.533s-0.675-3.331-1.878-4.533c-1.202-1.202-2.833-1.878-4.533-1.878
			c-1.7,0-3.331,0.675-4.533,1.878c-1.202,1.202-1.878,2.833-1.878,4.533s0.675,3.331,1.878,4.533
			C352.056,89.11,353.687,89.786,355.387,89.786z"/>
		<path style="fill:#AFDAD2;stroke:#FFFFFF;stroke-width:0.25;" d="M193.282,63.808c2.114,0,4.142-0.84,5.637-2.335
			c1.495-1.495,2.335-3.523,2.335-5.637c0-2.114-0.84-4.142-2.335-5.637s-3.523-2.335-5.637-2.335s-4.142,0.84-5.637,2.335
			c-1.495,1.495-2.335,3.523-2.335,5.637c0,2.114,0.84,4.142,2.335,5.637C189.14,62.968,191.168,63.808,193.282,63.808z"/>
		<path style="fill:#AFDAD2;stroke:#FFFFFF;stroke-width:0.25;" d="M318.347,71.421c1.955,0,3.83-0.777,5.212-2.159
			s2.159-3.258,2.159-5.212c0-1.955-0.777-3.83-2.159-5.212s-3.258-2.159-5.212-2.159c-1.955,0-3.83,0.777-5.212,2.159
			s-2.159,3.258-2.159,5.212c0,1.955,0.777,3.83,2.159,5.212S316.392,71.421,318.347,71.421z"/>
		<path style="fill:#AFDAD2;stroke:#FFFFFF;stroke-width:0.25;" d="M157.351,63.562c1.566,0,3.068-0.622,4.176-1.73
			c1.107-1.107,1.73-2.61,1.73-4.176c0-1.566-0.622-3.068-1.73-4.176c-1.107-1.107-2.61-1.73-4.176-1.73
			c-1.566,0-3.068,0.622-4.176,1.73c-1.107,1.107-1.73,2.61-1.73,4.176c0,1.566,0.622,3.068,1.73,4.176
			C154.282,62.94,155.785,63.562,157.351,63.562z"/>
		<path style="fill:#AFDAD2;stroke:#FFFFFF;stroke-width:0.25;" d="M171.532,58.997c1.728,0,3.385-0.686,4.607-1.908
			c1.222-1.222,1.908-2.879,1.908-4.607c0-1.728-0.686-3.385-1.908-4.607c-1.222-1.222-2.879-1.908-4.607-1.908
			c-1.728,0-3.385,0.686-4.607,1.908c-1.222,1.222-1.908,2.879-1.908,4.607c0,1.728,0.686,3.385,1.908,4.607
			C168.147,58.311,169.805,58.997,171.532,58.997z"/>
		<path style="fill:#AFDAD2;stroke:#FFFFFF;stroke-width:0.25;" d="M271.947,50.831c2.027,0,3.971-0.805,5.405-2.239
			c1.433-1.433,2.239-3.378,2.239-5.405s-0.805-3.971-2.239-5.405s-3.378-2.239-5.405-2.239c-2.027,0-3.971,0.805-5.405,2.239
			s-2.239,3.378-2.239,5.405s0.805,3.971,2.239,5.405C267.975,50.025,269.92,50.831,271.947,50.831z"/>
		<path style="fill:#AFDAD2;stroke:#FFFFFF;stroke-width:0.25;" d="M241.236,52.453c1.578,0,3.091-0.627,4.207-1.742
			c1.116-1.116,1.742-2.629,1.742-4.207c0-1.578-0.627-3.091-1.742-4.207c-1.116-1.116-2.629-1.742-4.207-1.742
			c-1.578,0-3.091,0.627-4.207,1.742c-1.116,1.116-1.742,2.629-1.742,4.207c0,1.578,0.627,3.091,1.742,4.207
			C238.145,51.826,239.658,52.453,241.236,52.453z"/>
		<path style="fill:#AFDAD2;stroke:#FFFFFF;stroke-width:0.25;" d="M287.213,59.712c1.206,0,2.363-0.479,3.217-1.332
			c0.853-0.853,1.332-2.01,1.332-3.217c0-1.206-0.479-2.364-1.332-3.217c-0.853-0.853-2.01-1.332-3.217-1.332
			c-1.206,0-2.364,0.479-3.217,1.332c-0.853,0.853-1.332,2.01-1.332,3.217c0,1.206,0.479,2.364,1.332,3.217
			C284.85,59.232,286.007,59.712,287.213,59.712z"/>
		<path style="fill:#AFDAD2;stroke:#FFFFFF;stroke-width:0.25;" d="M272.023,66.695c2.237,0,4.383-0.889,5.965-2.471
			s2.471-3.728,2.471-5.965s-0.889-4.383-2.471-5.965s-3.728-2.471-5.965-2.471c-2.237,0-4.383,0.889-5.965,2.471
			s-2.471,3.728-2.471,5.965s0.889,4.383,2.471,5.965S269.785,66.695,272.023,66.695z"/>
		<path style="fill:#AFDAD2;stroke:#FFFFFF;stroke-width:0.25;" d="M305.501,58.509c1.546,0,3.029-0.614,4.122-1.707
			c1.093-1.093,1.707-2.576,1.707-4.122c0-1.546-0.614-3.029-1.707-4.122c-1.093-1.093-2.576-1.707-4.122-1.707
			c-1.546,0-3.029,0.614-4.122,1.707s-1.707,2.576-1.707,4.122c0,1.546,0.614,3.029,1.707,4.122S303.955,58.509,305.501,58.509z"/>
		<path style="fill:#AFDAD2;stroke:#FFFFFF;stroke-width:0.25;" d="M43.918,200.711c1.942,0,3.805-0.772,5.178-2.145
			s2.145-3.236,2.145-5.178c0-1.942-0.772-3.805-2.145-5.178c-1.373-1.373-3.236-2.145-5.178-2.145s-3.805,0.772-5.178,2.145
			c-1.373,1.373-2.145,3.236-2.145,5.178c0,1.942,0.772,3.805,2.145,5.178C40.114,199.939,41.976,200.711,43.918,200.711z"/>
		<path style="fill:#AFDAD2;stroke:#FFFFFF;stroke-width:0.25;" d="M210.068,58.007c1.046,0,2.048-0.415,2.788-1.155
			c0.739-0.739,1.155-1.742,1.155-2.788c0-1.046-0.415-2.048-1.155-2.788c-0.739-0.739-1.742-1.155-2.788-1.155
			c-1.046,0-2.048,0.415-2.788,1.155c-0.739,0.739-1.155,1.742-1.155,2.788c0,1.046,0.415,2.048,1.155,2.788
			C208.019,57.592,209.022,58.007,210.068,58.007z"/>
		<path style="fill:#AFDAD2;stroke:#FFFFFF;stroke-width:0.25;" d="M345.505,76.055c1.262,0,2.472-0.501,3.364-1.393
			c0.892-0.892,1.393-2.102,1.393-3.364c0-1.262-0.501-2.472-1.393-3.364c-0.892-0.892-2.102-1.393-3.364-1.393
			c-1.262,0-2.472,0.501-3.364,1.393c-0.892,0.892-1.393,2.102-1.393,3.364c0,1.262,0.501,2.472,1.393,3.364
			C343.033,75.554,344.243,76.055,345.505,76.055z"/>
		<path style="fill:#AFDAD2;stroke:#FFFFFF;stroke-width:0.25;" d="M256.586,52.256c1.825,0,3.575-0.725,4.865-2.015
			c1.29-1.29,2.015-3.041,2.015-4.865c0-1.825-0.725-3.575-2.015-4.865c-1.29-1.29-3.041-2.015-4.865-2.015
			c-1.825,0-3.575,0.725-4.865,2.015c-1.29,1.29-2.015,3.041-2.015,4.865c0,1.825,0.725,3.575,2.015,4.865
			S254.761,52.256,256.586,52.256z"/>
		<path style="fill:#AFDAD2;stroke:#FFFFFF;stroke-width:0.25;" d="M99.462,156.736c2.102,0,4.119-0.835,5.605-2.322
			c1.487-1.487,2.322-3.503,2.322-5.605c0-2.102-0.835-4.119-2.322-5.605c-1.487-1.487-3.503-2.322-5.605-2.322
			c-2.102,0-4.119,0.835-5.605,2.322c-1.487,1.487-2.322,3.503-2.322,5.605c0,2.102,0.835,4.119,2.322,5.605
			C95.343,155.9,97.36,156.736,99.462,156.736z"/>
	</g>
	<path style="fill:#FFFFFF;" d="M330.384,129.569l-8.182-0.196l-8.183,0.188l-8.182,0.569l-8.177,0.942l-8.17,1.305l-8.16,1.651
		l-8.149,1.977l-8.137,2.279l-8.123,2.556l-8.11,2.803l-8.096,3.02l-8.082,3.205l-8.069,3.358l-8.057,3.478l-8.045,3.565
		l-8.034,3.62l-16.036,7.285l-8.004,3.609l-7.995,3.552l-7.987,3.473l-7.979,3.373l-7.972,3.256l-7.966,3.125l-7.96,2.981
		l-7.956,2.828l-7.952,2.668l-7.949,2.504l-7.947,2.338l-7.945,2.172l-7.945,2.007l-7.945,1.846l-7.946,1.689l-7.948,1.538
		l-7.95,1.394l-8.721,1.378l-0.384,2.653c-1.46,10.076-2.194,20.249-2.194,30.442c0,7.94,0.446,15.871,1.333,23.754l0.555,4.93
		l11.516-5.112l8.032-3.622l16.035-7.285l8.003-3.606l7.992-3.541l7.981-3.445l7.969-3.316l7.957-3.156l7.944-2.964l7.93-2.741
		l7.916-2.491l7.903-2.214l7.89-1.914l7.877-1.594l7.866-1.256l7.856-0.906l7.849-0.545l7.844-0.18l7.843,0.188l7.844,0.553
		l7.849,0.912l7.856,1.261l7.866,1.597l7.877,1.916l7.889,2.215l7.903,2.49l7.917,2.739l7.93,2.961l7.944,3.152l7.957,3.312
		l7.969,3.44l7.981,3.537l7.992,3.602l16.016,7.276l8.022,3.617l8.031,3.568l8.039,3.496l8.047,3.402l8.054,3.29l8.06,3.163
		l8.066,3.021l8.07,2.87l8.074,2.711l8.077,2.546l8.079,2.378l8.081,2.21l8.081,2.043l8.081,1.879l11.364,2.419l0.944-3.245
		c5.355-18.398,8.196-37.444,8.44-56.62l0.017-2.673l-0.017-2.696l-0.056-2.885c-0.684-26.007-6.135-51.648-16.084-75.668
		l-0.734-1.75l-1.311-3.032l-8.261-3.715l-8.031-3.559l-8.045-3.473l-8.057-3.354l-8.069-3.201l-8.082-3.017l-8.096-2.801
		l-8.11-2.555l-8.123-2.28l-8.137-1.979l-8.149-1.654l-8.16-1.31l-8.17-0.949L330.384,129.569z M322.117,133.01l8.013,0.188
		l8.013,0.561l8.013,0.927l8.013,1.283l8.013,1.624l8.013,1.946l8.013,2.247l8.013,2.523l8.013,2.771l8.013,2.99l8.013,3.179
		l8.013,3.335l8.013,3.459l8.013,3.551l6.979,3.139c0.496,1.14,0.982,2.284,1.458,3.434c9.783,23.619,15.136,48.822,15.808,74.347
		l0.055,2.837l0.017,2.65l-0.017,2.65c-0.24,18.87-3.038,37.589-8.295,55.649l-7.993-1.701l-8.013-1.862l-8.013-2.025l-8.013-2.191
		l-8.013-2.358l-8.013-2.525l-8.013-2.69l-8.013-2.849l-8.013-3.001l-8.013-3.144l-8.013-3.273l-8.013-3.388l-8.013-3.484
		l-8.013-3.56l-8.013-3.613l-16.026-7.281l-8.013-3.611l-8.013-3.551l-8.013-3.459l-8.013-3.335l-8.013-3.179l-8.013-2.99
		l-8.013-2.771L250,233.935l-8.013-2.247l-8.013-1.946l-8.013-1.624l-8.013-1.283l-8.013-0.927l-8.013-0.561l-8.013-0.188
		l-8.013,0.188l-8.013,0.561l-8.013,0.927l-8.013,1.283l-8.013,1.624l-8.013,1.946l-8.013,2.247l-8.013,2.523l-8.013,2.771
		l-8.013,2.99l-8.013,3.179l-8.013,3.335l-8.013,3.459l-8.013,3.551l-8.013,3.611l-16.026,7.281l-8.013,3.613l-6.981,3.099
		c-0.871-7.736-1.311-15.531-1.311-23.346c0-10.035,0.724-20.034,2.157-29.92l6.134-0.969l8.013-1.406l8.013-1.552l8.013-1.704
		l8.013-1.862l8.013-2.025l8.013-2.191l8.013-2.358l8.013-2.525l8.013-2.69l8.013-2.849l8.013-3.001l8.013-3.144l8.013-3.273
		l8.013-3.388l8.013-3.484l8.013-3.56l8.013-3.613l16.026-7.281l8.013-3.611l8.013-3.551l8.013-3.459l8.013-3.335l8.013-3.179
		l8.013-2.99l8.013-2.771l8.013-2.523l8.013-2.247l8.013-1.946l8.013-1.624l8.013-1.283l8.013-0.927l8.013-0.561L322.117,133.01z"/>
	<path style="fill:#7DB0BC;stroke:#FFFFFF;" d="M322.117,132.142l8.053,0.189l8.053,0.563l8.051,0.932l8.049,1.289l8.047,1.631
		l8.044,1.954l8.041,2.255l8.038,2.531l8.034,2.779l8.039,3l8.026,3.184l8.023,3.339l8.021,3.462l8.018,3.553l7.287,3.284
		c0.544,1.243,1.075,2.493,1.595,3.748c9.961,24.049,15.349,49.733,15.899,75.735l0,0l0.03,1.775l0.017,2.661l-0.017,2.656
		c-0.244,19.217-3.131,38.278-8.555,56.651l0,0l-8.796-1.869l-8.029-1.866l-8.029-2.029l-8.029-2.195L410,298.99l-8.028-2.53
		l-8.028-2.695l-8.027-2.854l-8.026-3.006l-8.024-3.148l-8.023-3.277l-8.021-3.391l-8.019-3.487l-8.017-3.562l-8.015-3.614
		l-16.024-7.28l-8.008-3.609l-8.005-3.547l-8.003-3.454l-8-3.329l-7.996-3.172l-8.003-2.987l-7.992-2.764l-7.988-2.515l-7.985-2.239
		l-7.982-1.939l-7.979-1.617l-7.977-1.277l-7.975-0.923l-7.973-0.558l-7.973-0.187l-7.973,0.187l-7.973,0.558l-7.975,0.923
		l-7.977,1.277l-7.979,1.617l-7.982,1.939l-7.985,2.239l-7.988,2.515l-7.992,2.764l-7.987,2.98l-8,3.173l-8.003,3.33l-8.005,3.456
		l-8.008,3.549l-8.011,3.61l-16.028,7.282l-8.017,3.615l-8.059,3.581c-0.965-8.155-1.452-16.376-1.452-24.621
		c0-10.29,0.758-20.542,2.258-30.675l0,0l6.75-1.069l7.998-1.403l7.998-1.548l7.997-1.7l7.997-1.858l7.997-2.021l7.997-2.186
		l7.997-2.353l7.998-2.52l7.998-2.685l7.999-2.844l8.001-2.997l8.002-3.139l8.003-3.269l8.005-3.384l8.007-3.482l8.009-3.558
		l8.011-3.612l16.028-7.282l8.018-3.613l8.021-3.554l8.024-3.463l8.026-3.34l8.03-3.185l8.023-2.994l8.034-2.779l8.038-2.531
		l8.041-2.255l8.044-1.954l8.047-1.631l8.049-1.289l8.051-0.932l8.053-0.563L322.117,132.142z"/>
	<path style="fill:#5C7DA2;" d="M193.909,229.166l8.013,0.188l8.013,0.561l8.013,0.927l8.013,1.283l8.013,1.624l8.013,1.946
		l8.013,2.247l8.013,2.523l8.013,2.771l8.013,2.99l8.013,3.179l8.013,3.335l8.013,3.459l8.013,3.551l8.013,3.611l8.013,3.64
		l8.013,3.64l8.013,3.613l8.013,3.56l8.013,3.484l8.013,3.388l8.013,3.273l8.013,3.144l8.013,3.001l8.013,2.849l8.013,2.69
		l8.013,2.525l8.013,2.358l8.013,2.191l8.013,2.025l8.013,1.862l6.859,1.458c-1.872,6.008-4.018,11.938-6.434,17.771
		c-10.484,25.31-25.851,48.309-45.223,67.68s-42.37,34.739-67.68,45.223c-25.31,10.484-52.439,15.88-79.834,15.88
		s-54.524-5.396-79.834-15.88s-48.309-25.851-67.68-45.223s-34.739-42.37-45.223-67.68c-7.002-16.904-11.735-34.62-14.106-52.685
		l6.517-2.895l8.013-3.613l8.013-3.64l8.013-3.64l8.013-3.611l8.013-3.551l8.013-3.459l8.013-3.335l8.013-3.179l8.013-2.99
		l8.013-2.771l8.013-2.523l8.013-2.247l8.013-1.946l8.013-1.624l8.013-1.283l8.013-0.927l8.013-0.561L193.909,229.166z"/>
	<path style="fill:#444876;" d="M209.935,283.185v26.871h48.078v37.109h48.078v25.383h48.078v10.713h48.078l0,9.363
		c-1.55,1.654-3.128,3.285-4.733,4.89c-19.371,19.371-42.37,34.739-67.68,45.223c-25.31,10.484-52.439,15.88-79.834,15.88
		s-54.524-5.396-79.834-15.88s-48.309-25.851-67.68-45.223c-14.694-14.694-27.084-31.476-36.787-49.77l0.002-25.036h48.078v-33.486
		h48.078v-6.038H209.935z"/>
	<path style="fill:#FFFFFF;" d="M211.576,281.543l-0.001,26.871l48.079,0l-0.001,37.108l48.079,0.001l-0.001,25.382l48.079,0.001
		l-0.001,10.713l48.079,0l0.002,9.23c-1.081,1.182-2.177,2.351-3.286,3.509l-0.001-9.459l-44.793-0.001l0,44.893
		c-1.089,0.641-2.184,1.272-3.285,1.893l0-57.498l-44.793-0.002l0,76.284c-1.092,0.315-2.187,0.62-3.284,0.917l0-102.581
		l-44.793-0.001l0,109.589c-1.094,0.051-2.189,0.093-3.285,0.126l0.001-146.824l-44.794,0l0,143.352
		c-1.097-0.206-2.192-0.42-3.286-0.643l0.001-169.581h-44.795l0,2.757l0.002,0l-0.002,152.256c-1.1-0.501-2.194-1.011-3.284-1.531
		l0.001-147.444h-44.795l-0.001,30.204l0.002,0.001l-0.002,88.334c-1.104-0.932-2.198-1.875-3.283-2.831l0-82.221H67.34
		l-0.002,26.426c-1.129-2.045-2.223-4.111-3.283-6.195l0.003-23.514l48.078-0.001l0-33.484l48.078,0l0.001-6.038H211.576z"/>
	<path style="fill:#444876;" d="M250,28c29.153,0,58.022,5.742,84.956,16.899s51.408,27.509,72.022,48.124
		c20.614,20.614,36.967,45.088,48.124,72.022c10.796,26.065,16.523,53.942,16.881,82.135L472,250l-0.018,2.82
		c-0.358,28.193-6.084,56.071-16.881,82.135c-11.156,26.934-27.509,51.408-48.124,72.022
		c-20.614,20.614-45.088,36.967-72.022,48.124S279.153,472,250,472s-58.022-5.742-84.956-16.899s-51.408-27.509-72.022-48.124
		c-20.614-20.614-36.967-45.088-48.124-72.022S28,279.153,28,250s5.742-58.022,16.899-84.956s27.509-51.408,48.124-72.022
		s45.088-36.967,72.022-48.124S220.847,28,250,28z M250,35.29c-28.196,0-56.117,5.554-82.166,16.344s-49.72,26.606-69.657,46.543
		s-35.753,43.608-46.543,69.657S35.29,221.804,35.29,250s5.554,56.117,16.344,82.166c10.79,26.049,26.606,49.72,46.543,69.657
		s43.608,35.753,69.657,46.543S221.804,464.71,250,464.71s56.117-5.554,82.166-16.344c26.049-10.79,49.72-26.606,69.657-46.543
		s35.753-43.608,46.543-69.657c10.442-25.209,15.98-52.171,16.327-79.438L464.71,250l-0.017-2.728
		c-0.346-27.267-5.885-54.229-16.327-79.438c-10.79-26.049-26.606-49.72-46.543-69.657s-43.608-35.753-69.657-46.543
		C306.117,40.844,278.195,35.29,250,35.29z"/>
</g>
</svg>
