<svg xmlns="http://www.w3.org/2000/svg" width="60" height="60" viewBox="0 0 24 24" fill="none" stroke="#8cf8f8" stroke-width="1.25" stroke-linecap="round" stroke-linejoin="round" class="tabler-icon tabler-icon-hexagon-letter-h !z-10"><path d="M19.875 6.27a2.225 2.225 0 0 1 1.125 1.948v7.284c0 .809 -.443 1.555 -1.158 1.948l-6.75 4.27a2.269 2.269 0 0 1 -2.184 0l-6.75 -4.27a2.225 2.225 0 0 1 -1.158 -1.948v-7.285c0 -.809 .443 -1.554 1.158 -1.947l6.75 -3.98a2.33 2.33 0 0 1 2.25 0l6.75 3.98h-.033z"></path><path d="M10 16v-8m4 0v8"></path><path d="M10 12h4"></path></svg>